<svg width="1608" height="1083" viewBox="0 0 1608 1083" fill="none" xmlns="http://www.w3.org/2000/svg">
<mask id="mask0_19_3" style="mask-type:luminance" maskUnits="userSpaceOnUse" x="-171" y="0" width="1957" height="1083">
<path d="M1786 0H-171V1083H1786V0Z" fill="white"/>
</mask>
<g mask="url(#mask0_19_3)">
<path d="M1857.27 1057.03C1857.27 1100.83 1821.38 1136.32 1777.1 1136.32H-108.886C-153.163 1136.32 -189.052 1100.83 -189.052 1057.03V57.4164C-189.052 13.609 -153.163 -21.9025 -108.886 -21.9025H1777.1C1821.38 -21.9025 1857.27 13.609 1857.27 57.4164V1057.03Z" fill="#23353F"/>
<path d="M6.85156 756.688C6.9279 756.796 7.00424 756.904 7.05876 757.002C7.05876 756.98 7.04785 756.959 7.02604 756.959C6.98242 756.883 6.91699 756.774 6.85156 756.688Z" fill="url(#paint0_radial_19_3)"/>
<path d="M13.9682 541.864C14.6798 541.019 15.282 540.359 15.6652 539.915C15.7747 539.806 15.8513 539.72 15.9061 539.644C14.8769 540.51 13.2894 542.416 11.2529 545.016C11.2748 544.994 11.3077 544.951 11.3296 544.929C12.3587 543.748 13.2346 542.709 13.9682 541.864Z" fill="url(#paint1_radial_19_3)"/>
<path d="M9.42421 759.417C9.38042 759.374 9.34758 759.352 9.30378 759.33C9.22714 759.265 9.1505 759.2 9.07386 759.135C8.90963 759.005 8.7454 758.865 8.58117 758.713C8.51548 758.648 8.44979 758.605 8.3841 758.54C8.18703 758.345 8.01184 758.161 7.82571 757.944C7.78192 757.901 7.74908 757.879 7.71624 757.836C7.53011 757.608 7.32208 757.349 7.125 757.099C7.67243 757.858 8.17607 758.453 8.57022 758.854C8.86583 759.168 9.11765 759.406 9.27093 759.536C9.29283 759.579 9.30378 759.579 9.32568 759.601C9.38042 759.547 9.40232 759.482 9.42421 759.417Z" fill="url(#paint2_radial_19_3)"/>
<path d="M5.70215 754.695L5.76703 754.846L5.72378 754.76L5.70215 754.695Z" fill="url(#paint3_radial_19_3)"/>
<path d="M6.28223 755.778L6.36893 755.929L6.3906 755.972L6.31474 755.843L6.28223 755.778Z" fill="url(#paint4_radial_19_3)"/>
<path d="M104.316 431.279C104.962 430.791 105.488 430.391 105.827 430.142C105.915 430.077 105.97 430.033 106.046 429.99C105.159 430.456 103.714 431.593 101.831 433.163C101.875 433.142 101.93 433.098 101.973 433.055C102.871 432.362 103.659 431.766 104.316 431.279Z" fill="url(#paint5_radial_19_3)"/>
<path d="M60.0614 458.733C60.5322 458.625 61.0468 458.581 61.5833 458.44H61.6271C59.8753 458.733 58.2111 458.993 56.7002 459.199C57.0943 459.155 57.8279 459.069 58.7914 458.971C59.1636 458.906 59.6016 458.82 60.0614 458.733Z" fill="url(#paint6_radial_19_3)"/>
<path d="M5.15527 753.471C5.16612 753.536 5.19868 753.579 5.20953 753.622L5.19867 753.601C5.17697 753.558 5.16612 753.536 5.15527 753.471Z" fill="url(#paint7_radial_19_3)"/>
<path d="M1447.3 86.3541C1447.54 86.8198 1447.78 87.2855 1448.02 87.7295C1448.14 87.9461 1448.27 88.1519 1448.38 88.3685C1448.02 87.7079 1447.66 87.0256 1447.3 86.3541Z" fill="url(#paint8_radial_19_3)"/>
<path d="M4.10352 750.428C4.10352 750.45 4.11434 750.493 4.12515 750.514C4.14678 750.558 4.15759 750.601 4.16841 750.644C4.14678 750.558 4.12515 750.493 4.10352 750.428Z" fill="url(#paint9_radial_19_3)"/>
<path d="M1562.11 492.176C1562.47 492.447 1563 492.858 1563.67 493.356C1564.35 493.887 1565.17 494.494 1566.1 495.219C1566.16 495.241 1566.21 495.284 1566.24 495.327C1564.32 493.703 1562.83 492.533 1561.91 492.046C1561.97 492.089 1562.02 492.133 1562.11 492.176Z" fill="url(#paint10_radial_19_3)"/>
<path d="M1568.46 756.915C1569.01 757.067 1569.54 757.11 1570.02 757.208C1570.5 757.294 1570.95 757.381 1571.36 757.435C1572.4 757.565 1573.14 757.652 1573.56 757.684C1571.97 757.468 1570.23 757.197 1568.4 756.883L1568.46 756.915Z" fill="url(#paint11_radial_19_3)"/>
<path d="M1358.06 31.0778C1357.23 30.5688 1356.68 30.2331 1356.44 30.1031C1357.48 30.9912 1359.25 31.9442 1361.47 33.0381C1360.98 32.7673 1360.51 32.5074 1360.07 32.2583C1359.3 31.7926 1358.63 31.3919 1358.06 31.0778Z" fill="url(#paint12_radial_19_3)"/>
<path d="M1577.16 153.598L1576.96 153.11C1577.07 153.381 1577.18 153.663 1577.28 153.912L1577.16 153.598Z" fill="url(#paint13_radial_19_3)"/>
<path d="M1611.53 1026.19C1611.38 1024.58 1611.26 1023 1611.15 1021.47C1611.13 1021.49 1611.11 1021.54 1611.11 1021.54C1611.11 1021.54 1610.24 1010.01 1610.06 1006.84C1609.86 1005.53 1609.68 1004.95 1609.58 1004.73C1609.25 1004.17 1608.64 1003.42 1607.59 1002.55C1607.59 1002.55 1607.64 1002.57 1607.68 1002.59C1606.6 1001.75 1606.28 1000.77 1606.25 999.637C1606.16 996.886 1608.05 991.894 1608.45 990.897C1611.09 983.197 1615.07 971.837 1613.53 955.148C1612.57 944.762 1614.06 884.731 1615.32 840.674C1615.29 840.631 1615.3 840.566 1615.33 840.523C1615.74 825.967 1616.14 813.177 1616.41 804.502C1616.32 804.632 1616.3 804.73 1616.3 804.73L1616.37 793.683C1615.68 793.066 1614.7 792.438 1614.41 791.734C1614.12 791.56 1613.82 791.398 1613.57 791.225C1611.28 789.698 1610.1 787.824 1610.29 786.189C1610.29 786.167 1610.29 786.145 1610.29 786.124C1610.32 785.366 1610.55 784.618 1610.94 783.882C1609.23 783.189 1607.34 782.463 1605.32 781.77C1605.32 781.792 1605.33 781.792 1605.32 781.813C1605.31 781.9 1605.31 782.008 1605.3 782.084C1605.29 782.171 1605.26 782.258 1605.24 782.355C1605.16 782.691 1605.01 783.048 1604.8 783.395C1604.41 784.034 1603.8 784.575 1603.12 785.019C1602.44 785.463 1601.64 785.777 1600.82 786.081C1599.16 786.611 1597.29 786.904 1595.32 787.034C1593.34 787.163 1591.26 787.142 1589.13 786.99C1586.97 786.817 1584.76 786.568 1582.54 786.232C1581.97 786.145 1581.41 786.059 1580.86 785.983C1580.28 785.875 1579.72 785.756 1579.16 785.647C1578.05 785.442 1576.93 785.203 1575.79 784.965C1574.66 784.738 1573.55 784.521 1572.43 784.272C1571.31 783.979 1570.21 783.698 1569.11 783.405C1568.01 783.135 1566.92 782.853 1565.84 782.561C1565.58 782.496 1565.31 782.431 1565.04 782.344C1564.78 782.257 1564.51 782.193 1564.25 782.117C1563.73 781.965 1563.2 781.803 1562.69 781.629C1561.65 781.315 1560.63 781.012 1559.64 780.698C1559.15 780.546 1558.66 780.406 1558.16 780.232C1557.69 780.059 1557.21 779.896 1556.74 779.723C1555.81 779.387 1554.9 779.063 1554.02 778.749C1553.14 778.435 1552.3 778.153 1551.49 777.817C1549.88 777.178 1548.39 776.615 1547.08 776.063C1545.79 775.489 1544.65 775.001 1543.73 774.601C1542.8 774.178 1542.08 773.843 1541.59 773.604C1541.11 773.377 1540.84 773.225 1540.84 773.225C1540.84 773.225 1541.11 773.355 1541.6 773.561C1542.11 773.778 1542.84 774.092 1543.78 774.471C1544.07 774.579 1544.42 774.698 1544.75 774.85C1542.58 773.94 1541.25 773.301 1540.9 773.16C1540.84 773.117 1540.81 773.117 1540.81 773.117C1540.81 773.117 1557 766.37 1576.51 767.475C1592.48 768.363 1601.26 772.695 1604.14 777.774C1604.4 778.218 1604.71 778.792 1604.95 779.528C1605.06 779.842 1605.13 780.211 1605.21 780.59C1607.53 781.326 1609.69 782.052 1611.65 782.723C1611.77 782.528 1611.87 782.344 1611.99 782.171C1612.29 781.575 1612.52 781.218 1612.56 781.174C1612.79 780.687 1613.01 780.178 1613.21 779.647C1603.69 770.485 1594.81 763.067 1587.09 757.413C1587 757.5 1586.89 757.587 1586.79 757.663C1586.75 757.684 1586.71 757.727 1586.66 757.749C1586.48 757.857 1586.28 757.966 1586.04 758.02C1585.97 758.063 1585.9 758.085 1585.82 758.107C1585.57 758.172 1585.29 758.237 1584.99 758.302C1584.91 758.302 1584.82 758.323 1584.76 758.323C1584.46 758.367 1584.12 758.41 1583.77 758.453C1583.77 758.453 1583.64 758.453 1583.58 758.453C1583.16 758.475 1582.7 758.496 1582.23 758.496C1582.15 758.496 1582.08 758.496 1582.01 758.496C1581.91 758.496 1581.83 758.496 1581.76 758.496C1581.76 758.475 1581.76 758.475 1581.76 758.475C1579.67 758.431 1577.01 758.182 1573.82 757.738C1573.82 757.738 1573.54 757.738 1573.22 757.717C1572.77 757.695 1572.13 757.673 1571.31 757.63C1570.91 757.587 1570.46 757.522 1569.97 757.457C1569.46 757.392 1568.93 757.348 1568.37 757.24C1567.81 757.132 1567.22 757.024 1566.57 756.904C1565.94 756.796 1565.29 756.59 1564.6 756.417C1563.9 756.265 1563.2 756.016 1562.47 755.8C1562.11 755.67 1561.73 755.572 1561.35 755.442C1560.98 755.291 1560.61 755.172 1560.22 755.02C1559.84 754.89 1559.46 754.749 1559.05 754.598C1558.66 754.424 1558.27 754.262 1557.88 754.11C1557.47 753.937 1557.08 753.775 1556.67 753.58C1556.29 753.395 1555.89 753.201 1555.48 753.006C1553.86 752.226 1552.23 751.338 1550.59 750.363C1548.99 749.367 1547.35 748.327 1545.78 747.19C1544.99 746.616 1544.23 746.031 1543.46 745.435C1542.7 744.818 1541.94 744.212 1541.23 743.594C1539.78 742.327 1538.35 741.103 1536.98 739.891C1536.29 739.295 1535.62 738.71 1534.96 738.136C1534.28 737.562 1533.64 737.01 1533 736.468C1531.73 735.385 1530.53 734.378 1529.41 733.425C1525.67 730.252 1523 727.967 1522.25 727.328C1522.21 727.306 1522.15 727.263 1522.1 727.241C1520.29 726.483 1532.16 723.136 1552.47 728.681C1562.3 731.367 1570.14 736.847 1575.85 742.046C1575.91 742.089 1575.97 742.154 1576.03 742.219C1576.28 742.446 1576.54 742.685 1576.79 742.912C1576.91 743.042 1577.02 743.14 1577.14 743.248C1577.37 743.464 1577.59 743.692 1577.82 743.908C1577.95 744.038 1578.07 744.158 1578.2 744.288C1578.4 744.482 1578.59 744.688 1578.79 744.883C1578.93 745.035 1579.05 745.176 1579.2 745.305C1579.36 745.479 1579.52 745.663 1579.69 745.836C1579.84 745.988 1579.98 746.15 1580.15 746.324C1580.27 746.454 1580.4 746.594 1580.52 746.724C1580.7 746.919 1580.86 747.103 1581.02 747.277C1581.11 747.385 1581.21 747.493 1581.29 747.591C1581.48 747.807 1581.66 748.013 1581.85 748.23C1581.9 748.273 1581.94 748.338 1581.99 748.381C1582.21 748.63 1582.41 748.89 1582.61 749.118C1584.68 751.598 1586.01 753.493 1586.52 754.197C1586.74 754.511 1586.91 754.793 1587.06 755.063C1587.09 755.107 1587.11 755.15 1587.14 755.215C1587.27 755.442 1587.35 755.702 1587.41 755.908C1587.42 755.951 1587.43 755.995 1587.44 756.038V756.06C1592.72 759.904 1598.64 764.453 1604.98 769.749L1606.93 771.33C1606.93 771.33 1606.94 771.352 1606.95 771.395C1609.22 773.323 1611.55 775.348 1613.91 777.471C1614.58 774.915 1614.98 771.785 1615.16 767.929C1615.21 766.933 1615.25 765.861 1615.26 764.756L1617.45 655.395C1617.7 642.875 1615.41 637.038 1611.76 631.222C1610.78 630.02 1610.36 628.98 1610.27 628.114C1610.27 628.071 1610.26 628.006 1610.26 627.962C1610.26 627.941 1610.26 627.941 1610.26 627.919C1610.25 627.627 1610.26 627.345 1610.31 627.096C1610.33 627.053 1610.33 627.031 1610.34 627.009C1610.42 626.739 1610.51 626.479 1610.63 626.251L1610.64 626.23C1611.19 625.233 1612.13 624.681 1612.49 624.497C1613.52 623.858 1614.71 623.403 1615.85 623.035C1615.7 622.905 1615.51 622.656 1615.38 622.19C1613.86 621.594 1613.03 621.215 1613.03 621.215C1613.03 621.215 1613.03 621.194 1613.03 621.15C1612.81 621.064 1612.69 620.999 1612.69 620.999C1612.69 620.999 1612.68 619.71 1613.32 619.797C1613.32 619.797 1609.74 606.194 1610.96 598.158C1610.96 598.158 1610.95 598.895 1611.11 600.108C1611.16 599.49 1611.21 598.927 1611.3 598.375C1611.3 598.375 1611.29 599.393 1611.55 600.996C1611.37 596.447 1611.29 591.346 1611.28 585.769C1611.22 574.711 1611.44 561.954 1611.76 548.839C1610.72 548.568 1609.69 548.286 1608.66 548.037C1607.56 547.745 1606.48 547.463 1605.4 547.192C1605.13 547.106 1604.87 547.041 1604.6 546.976C1604.33 546.889 1604.07 546.802 1603.81 546.727C1603.29 546.575 1602.76 546.413 1602.25 546.261C1601.22 545.947 1600.2 545.622 1599.2 545.33C1598.71 545.156 1598.22 545.016 1597.73 544.842C1597.25 544.669 1596.78 544.506 1596.31 544.333C1595.38 544.019 1594.47 543.673 1593.58 543.38C1592.71 543.066 1591.85 542.763 1591.04 542.449C1589.43 541.821 1587.94 541.247 1586.64 540.673C1585.35 540.12 1584.22 539.633 1583.28 539.232C1582.36 538.788 1581.64 538.452 1581.14 538.214C1580.65 537.987 1580.4 537.857 1580.4 537.857C1580.4 537.857 1580.66 537.987 1581.17 538.193C1581.67 538.398 1582.39 538.702 1583.33 539.081C1583.61 539.189 1583.96 539.33 1584.28 539.438C1582.12 538.55 1580.78 537.911 1580.45 537.77C1580.4 537.749 1580.36 537.727 1580.36 537.727C1580.36 537.727 1594.48 531.846 1612.24 531.976C1612.34 528.738 1612.45 525.522 1612.55 522.327C1612.12 522.305 1611.58 522.283 1610.9 522.262C1610.49 522.197 1610.03 522.132 1609.55 522.088C1609.04 522.002 1608.51 521.98 1607.96 521.861C1607.39 521.753 1606.79 521.644 1606.15 521.547C1605.52 521.417 1604.87 521.233 1604.17 521.06C1603.48 520.886 1602.78 520.659 1602.06 520.421C1601.68 520.312 1601.31 520.193 1600.93 520.063C1600.56 519.933 1600.18 519.792 1599.79 519.662C1599.4 519.511 1599.02 519.392 1598.63 519.24C1598.25 519.067 1597.85 518.904 1597.46 518.731C1597.05 518.558 1596.66 518.417 1596.26 518.222C1595.86 518.016 1595.45 517.843 1595.06 517.626C1593.44 516.868 1591.8 515.98 1590.18 515.006C1588.56 514.009 1586.93 512.969 1585.36 511.832C1584.58 511.258 1583.81 510.652 1583.04 510.078C1582.29 509.439 1581.52 508.854 1580.79 508.215C1579.35 506.97 1577.93 505.724 1576.56 504.533C1575.87 503.937 1575.19 503.352 1574.52 502.757C1573.85 502.205 1573.21 501.652 1572.57 501.111C1571.3 500.028 1570.1 498.999 1568.98 498.067C1565.24 494.873 1562.57 492.609 1561.82 491.959C1561.78 491.959 1561.71 491.916 1561.67 491.894C1559.87 491.136 1571.72 487.79 1592.04 493.335C1600.63 495.685 1607.72 500.147 1613.18 504.739C1613.93 483.945 1614.6 466.66 1614.57 459.686C1614.56 458.56 1614.55 457.737 1614.49 457.184C1614.36 455.603 1614.25 454.011 1614.12 452.484C1614.11 452.506 1614.1 452.527 1614.1 452.527C1614.1 452.527 1613.21 441.004 1613.03 437.853C1612.85 436.521 1612.67 435.947 1612.57 435.741C1612.23 435.167 1611.61 434.43 1610.56 433.564C1610.56 433.564 1610.61 433.564 1610.66 433.586C1609.59 432.741 1609.26 431.788 1609.22 430.651C1609.14 427.9 1611.02 422.907 1611.43 421.889C1614.07 414.211 1618.05 402.828 1616.51 386.161C1616.19 382.674 1616.15 373.642 1616.28 361.501C1615.94 358.642 1615.53 355.664 1615.05 352.512C1614.26 347.292 1613.2 341.455 1611.81 335.065C1611.77 334.935 1611.72 334.805 1611.69 334.664C1611.64 334.415 1611.56 334.015 1611.46 333.527C1611.09 332.466 1610.94 331.199 1610.18 330.181C1609.55 329.314 1605.55 324.744 1601.64 321.105C1601.47 320.954 1601.3 320.813 1601.12 320.661C1601.07 320.618 1601.01 320.575 1600.95 320.531L1600.91 320.618C1600.28 321.528 1599.47 322.21 1598.6 322.686C1596.85 323.683 1594.97 324.019 1593.26 324.148C1593.01 324.17 1592.78 324.148 1592.53 324.17C1585.55 324.484 1574.2 321.419 1557.75 311.055C1557.4 310.838 1557.06 310.611 1556.69 310.394L1556.6 310.351C1556.16 310.102 1555.48 309.734 1554.66 309.246C1553.01 308.293 1550.61 306.983 1547.77 305.337C1546.35 304.514 1544.86 303.539 1543.27 302.521C1541.69 301.525 1540.02 300.474 1538.28 299.369C1536.58 298.232 1534.84 297.019 1533.05 295.817C1531.3 294.593 1529.48 293.359 1527.73 292.07C1525.96 290.781 1524.2 289.492 1522.47 288.225C1520.74 286.958 1519.09 285.648 1517.45 284.392C1516.65 283.774 1515.83 283.146 1515.06 282.55C1514.3 281.933 1513.54 281.348 1512.8 280.753C1511.34 279.594 1509.96 278.468 1508.7 277.428C1506.17 275.359 1504.08 273.583 1502.61 272.37C1501.88 271.753 1501.31 271.276 1500.92 270.93C1500.53 270.616 1500.32 270.443 1500.32 270.443C1500.32 270.443 1500.54 270.594 1500.96 270.887C1501.37 271.201 1502 271.623 1502.75 272.197C1502.84 272.262 1502.95 272.327 1503.03 272.414C1500.58 270.529 1498.94 269.24 1498.33 268.753C1498.13 268.688 1498.02 268.666 1498.02 268.666L1498.06 268.536L1498.09 268.428C1498.09 268.428 1498.21 268.471 1498.42 268.536C1501.95 268.536 1530.95 268.894 1560.91 281.402C1566.33 283.666 1571.16 285.973 1575.41 288.279C1575.05 288.074 1574.67 287.857 1574.32 287.662C1573.13 286.98 1572.07 286.438 1571.19 285.994C1569.44 285.085 1568.44 284.554 1568.44 284.554C1568.44 284.554 1568.7 284.684 1569.18 284.89C1569.65 285.106 1570.37 285.42 1571.26 285.843C1572.13 286.265 1573.22 286.796 1574.46 287.413C1575.08 287.727 1575.71 288.052 1576.4 288.431C1577.09 288.789 1577.79 289.168 1578.54 289.59C1578.89 289.796 1579.27 290.034 1579.66 290.229C1580.04 290.456 1580.42 290.695 1580.82 290.922C1581.6 291.366 1582.4 291.897 1583.23 292.406C1584.86 293.467 1586.56 294.583 1588.25 295.893C1591.62 298.449 1595.03 301.481 1597.78 305.12C1598.44 306.052 1599.08 306.983 1599.63 307.979C1599.91 308.488 1600.14 308.997 1600.4 309.506C1600.6 310.015 1600.86 310.546 1601.04 311.066C1601.83 313.156 1602.13 315.419 1601.87 317.585C1601.82 317.835 1601.78 318.094 1601.72 318.365C1601.7 318.56 1601.64 318.723 1601.59 318.918C1601.66 318.983 1601.75 319.069 1601.82 319.134C1603.76 320.737 1608.68 325.546 1609.85 326.683C1606.23 311.9 1600.92 294.637 1593.09 275.511C1592.86 275.067 1592.67 274.58 1592.52 274.136C1592.35 273.713 1592.17 273.269 1591.98 272.847C1590.8 271.666 1589.03 270.031 1586.09 267.724C1585.74 268.168 1585.35 268.547 1584.9 268.883C1584.16 269.414 1583.31 269.793 1582.46 270.063C1580.74 270.594 1578.98 270.757 1577.26 270.757C1575.54 270.778 1573.87 270.583 1572.27 270.356C1570.67 270.128 1569.15 269.782 1567.7 269.424C1566.28 269.089 1564.94 268.666 1563.73 268.287C1562.5 267.887 1561.39 267.486 1560.41 267.129C1559.43 266.749 1558.6 266.414 1557.92 266.111C1557.22 265.84 1556.71 265.58 1556.32 265.417C1555.96 265.266 1555.77 265.157 1555.77 265.157C1555.77 265.157 1556.16 265.309 1556.84 265.515C1551.05 263.273 1544.42 260.186 1536.99 256.017C1536.47 255.725 1535.98 255.421 1535.48 255.129C1535.76 255.345 1536.01 255.486 1536.2 255.616C1536.58 255.865 1536.79 255.995 1536.79 255.995C1536.79 255.995 1536.57 255.865 1536.18 255.66C1535.77 255.443 1535.17 255.151 1534.44 254.728C1533.69 254.327 1532.8 253.84 1531.76 253.266C1530.72 252.714 1529.59 251.977 1528.35 251.23C1527.11 250.472 1525.74 249.66 1524.39 248.696C1523.69 248.23 1522.99 247.743 1522.26 247.255C1521.54 246.768 1520.8 246.259 1520.07 245.707C1519.35 245.154 1518.61 244.602 1517.86 244.061C1517.12 243.487 1516.34 242.934 1515.61 242.328C1514.86 241.71 1514.12 241.104 1513.36 240.508C1512.99 240.216 1512.62 239.891 1512.25 239.599C1511.86 239.285 1511.5 238.96 1511.13 238.646C1509.68 237.357 1508.19 236.111 1506.83 234.768C1506.14 234.108 1505.44 233.458 1504.77 232.797C1504.1 232.148 1503.46 231.487 1502.82 230.848C1501.53 229.559 1500.35 228.249 1499.22 227.036C1498.11 225.79 1497.07 224.599 1496.15 223.484C1495.7 222.91 1495.25 222.39 1494.84 221.881C1494.43 221.35 1494.06 220.863 1493.69 220.397C1492.96 219.466 1492.37 218.621 1491.86 217.939C1491.38 217.256 1491 216.715 1490.75 216.336C1490.5 215.957 1490.38 215.74 1490.38 215.74C1490.38 215.74 1490.53 215.935 1490.81 216.292C1491.07 216.65 1491.51 217.159 1492.04 217.82C1492.2 217.993 1492.38 218.22 1492.56 218.437C1491.51 217.105 1490.88 216.238 1490.67 215.924C1490.54 215.859 1490.47 215.838 1490.47 215.838C1490.47 215.838 1490.54 215.859 1490.65 215.903C1490.6 215.838 1490.57 215.773 1490.57 215.773C1490.57 215.773 1526.15 216.39 1557.43 234.173C1567.35 239.837 1574.15 245.111 1578.69 249.746C1578.88 249.92 1579.05 250.082 1579.26 250.277C1579.58 250.569 1579.93 250.927 1580.29 251.317C1580.63 251.696 1581.02 252.075 1581.42 252.519C1581.78 252.963 1582.18 253.429 1582.59 253.938C1582.97 254.447 1583.41 254.956 1583.78 255.519C1583.98 255.811 1584.18 256.114 1584.39 256.407C1584.58 256.699 1584.76 257.024 1584.95 257.338C1585.69 258.605 1586.4 260.046 1586.83 261.627C1587.05 262.407 1587.19 263.251 1587.22 264.129C1587.22 264.334 1587.22 264.551 1587.21 264.768L1587.13 265.45C1587.08 265.677 1587.01 265.916 1586.96 266.143C1586.9 266.273 1586.86 266.37 1586.82 266.479C1588.32 267.616 1589.54 268.569 1590.47 269.316C1585.92 258.681 1580.63 247.526 1574.42 235.96C1573.91 234.985 1573.36 234.054 1572.83 233.079L1568.7 225.715C1558.62 208.289 1547.24 191.979 1534.59 176.936C1533.52 175.853 1532.5 174.586 1532.5 174.586C1530.09 172.128 1525.43 169.193 1519.73 166.171C1519.65 166.28 1519.56 166.377 1519.45 166.485H1519.44C1519.31 166.594 1519.16 166.702 1519.02 166.799C1519.02 166.799 1518.99 166.799 1518.99 166.821C1518.81 166.908 1518.65 167.016 1518.45 167.092H1518.43C1515.87 168.207 1510.26 168.489 1502.01 168.088C1501.88 168.11 1501.62 168.131 1501.2 168.131C1500.62 168.153 1499.76 168.196 1498.66 168.218C1498.12 168.218 1497.51 168.196 1496.86 168.175C1496.52 168.175 1496.17 168.153 1495.81 168.153C1495.64 168.153 1495.46 168.153 1495.27 168.131C1495.09 168.11 1494.9 168.088 1494.71 168.088C1493.95 168.023 1493.13 167.937 1492.27 167.882C1491.42 167.796 1490.53 167.644 1489.6 167.525C1488.66 167.395 1487.71 167.211 1486.7 166.994C1486.21 166.908 1485.69 166.81 1485.18 166.68C1484.68 166.572 1484.16 166.453 1483.64 166.323C1483.1 166.171 1482.57 166.052 1482.04 165.922C1481.5 165.771 1480.95 165.608 1480.42 165.456C1479.88 165.283 1479.33 165.142 1478.77 164.947C1478.23 164.753 1477.68 164.568 1477.12 164.395C1474.89 163.637 1472.63 162.727 1470.38 161.731C1468.12 160.691 1465.87 159.641 1463.67 158.406C1462.56 157.81 1461.5 157.161 1460.41 156.522C1459.34 155.883 1458.27 155.233 1457.26 154.529C1455.2 153.175 1453.22 151.843 1451.25 150.554C1450.29 149.915 1449.35 149.287 1448.39 148.648C1447.45 148.031 1446.53 147.446 1445.64 146.872C1443.85 145.713 1442.16 144.587 1440.58 143.569C1435.33 140.147 1431.56 137.688 1430.48 136.995C1430.41 136.974 1430.33 136.93 1430.26 136.909C1427.79 136.172 1443.26 130.876 1470.82 135.382C1484.15 137.558 1495.12 143.309 1503.18 148.984C1503.27 149.027 1503.33 149.092 1503.41 149.157C1503.77 149.417 1504.12 149.666 1504.48 149.915C1504.68 150.067 1504.87 150.186 1505.06 150.338C1505.34 150.554 1505.62 150.76 1505.88 150.955C1506.12 151.139 1506.38 151.334 1506.62 151.529C1506.81 151.681 1507 151.822 1507.19 151.973C1507.49 152.211 1507.8 152.46 1508.1 152.688C1508.19 152.775 1508.31 152.861 1508.4 152.937C1508.76 153.229 1509.11 153.533 1509.46 153.803C1509.49 153.825 1509.52 153.847 1509.54 153.868C1514.42 157.973 1517.5 161.417 1518.51 162.478C1518.7 162.684 1518.87 162.879 1519.02 163.096C1519.09 163.161 1519.14 163.247 1519.2 163.323C1519.29 163.431 1519.37 163.54 1519.43 163.637C1519.49 163.724 1519.54 163.81 1519.58 163.897C1519.65 163.984 1519.69 164.092 1519.74 164.168C1519.78 164.254 1519.82 164.319 1519.84 164.395C1519.88 164.46 1519.9 164.547 1519.93 164.623C1523.01 166.085 1525.36 167.287 1526.88 168.067C1515.88 155.883 1504.01 144.587 1491.32 134.179C1488.91 132.338 1482.27 127.14 1479.89 125.234C1460.75 110.895 1441.95 99.5126 1424.89 90.7944C1422.9 89.9064 1417.85 87.3505 1416.9 86.8632C1403.71 80.5818 1391.77 75.9682 1381.84 72.9249C1381.77 73.0332 1381.7 73.1199 1381.62 73.2174C1381.58 73.2607 1381.55 73.304 1381.51 73.3257C1381.37 73.4773 1381.2 73.6181 1380.99 73.748C1380.93 73.7913 1380.86 73.8347 1380.8 73.878C1380.58 74.0079 1380.35 74.1271 1380.07 74.257C1379.99 74.3004 1379.89 74.3437 1379.82 74.387C1379.57 74.4953 1379.33 74.6036 1379.05 74.6794C1378.9 74.7444 1378.75 74.8094 1378.57 74.8743C1378.31 74.961 1378.01 75.0476 1377.71 75.1451C1377.49 75.2101 1377.29 75.2751 1377.06 75.34H1377.04C1375.03 75.8924 1372.44 76.423 1369.32 76.9321C1369.23 76.9537 1369.04 76.997 1368.72 77.0837C1368.29 77.192 1367.67 77.3544 1366.89 77.5494C1366.47 77.6143 1366.05 77.701 1365.56 77.7768C1365.06 77.8634 1364.55 77.9934 1363.99 78.0259C1363.43 78.0909 1362.82 78.1775 1362.19 78.2641C1361.56 78.3291 1360.89 78.3508 1360.19 78.3941C1359.49 78.4591 1358.76 78.4591 1358 78.4591C1357.63 78.4591 1357.25 78.4591 1356.86 78.4591C1356.46 78.4591 1356.07 78.4374 1355.68 78.4374C1355.27 78.4158 1354.87 78.3941 1354.45 78.3724C1354.04 78.3508 1353.63 78.3075 1353.21 78.2858C1352.8 78.2425 1352.37 78.2208 1351.94 78.1775C1351.52 78.1125 1351.08 78.0692 1350.65 78.0042C1348.91 77.7984 1347.13 77.4952 1345.33 77.1162C1343.53 76.7155 1341.71 76.2714 1339.92 75.7191C1339.03 75.47 1338.15 75.1451 1337.25 74.8527C1336.39 74.5603 1335.51 74.2354 1334.67 73.8997C1332.97 73.2174 1331.3 72.5459 1329.69 71.9069C1328.89 71.5929 1328.09 71.268 1327.3 70.9539C1326.52 70.6398 1325.76 70.3582 1325.01 70.0658C1323.52 69.4918 1322.12 68.9395 1320.83 68.4413C1316.47 66.7735 1313.33 65.5606 1312.43 65.2032C1312.38 65.2032 1312.31 65.1815 1312.31 65.1815C1310.35 65.0082 1320.78 58.8135 1341.54 57.8821C1351.61 57.4381 1360.49 59.9506 1367.25 62.8531C1367.23 62.8314 1367.23 62.8314 1367.23 62.8314C1367.44 62.918 1367.65 63.0263 1367.87 63.1021C1367.89 63.1021 1367.91 63.1238 1367.91 63.1238C1368.77 63.5028 1369.56 63.8602 1370.32 64.2501C1370.35 64.2718 1370.38 64.2718 1370.38 64.2718C1371.15 64.6508 1371.88 65.0082 1372.56 65.3981C1372.56 65.3981 1372.6 65.4198 1372.62 65.4198C1373.31 65.7988 1373.95 66.1562 1374.57 66.5028C1374.58 66.5244 1374.58 66.5244 1374.6 66.5244C1377.31 68.0948 1379.24 69.4485 1380.16 70.0983C1380.28 70.1633 1380.41 70.2716 1380.5 70.3257C1380.77 70.5207 1381.01 70.7048 1381.21 70.8997C1381.26 70.9431 1381.31 70.9864 1381.35 71.0297C1381.52 71.203 1381.66 71.3654 1381.76 71.5387C1381.79 71.582 1381.82 71.6254 1381.85 71.6687C1387.28 73.3148 1393.35 75.3292 1399.92 77.7443H1399.89C1398.29 76.9862 1395.55 74.5061 1392.17 71.0189L1392.04 71.0405C1392 71.0622 1391.94 71.0622 1391.94 71.0622C1391.76 71.0839 1391.61 71.0839 1391.44 71.0839C1391.38 71.0839 1391.34 71.0839 1391.28 71.0839C1391.07 71.0622 1390.81 71.0189 1390.54 70.9755C1390.53 70.9539 1390.51 70.9539 1390.51 70.9539C1390.23 70.8889 1389.95 70.8023 1389.66 70.7265C1389.6 70.7048 1389.53 70.6831 1389.47 70.6615C1389.17 70.5532 1388.84 70.4232 1388.5 70.3041C1388.48 70.2824 1388.46 70.2824 1388.46 70.2824C1388.07 70.1091 1387.67 69.925 1387.26 69.7084C1387.22 69.6868 1387.18 69.6651 1387.12 69.6435C1386.76 69.4593 1386.39 69.2644 1386.01 69.0261C1385.92 68.9828 1385.83 68.9395 1385.76 68.8745C1384.89 68.3872 1383.97 67.7915 1383 67.1201C1382.85 67.0118 1382.72 66.9251 1382.58 66.8277C1382.23 66.5786 1381.89 66.3186 1381.52 66.0479C1381.34 65.9179 1381.18 65.7988 1381 65.6689C1380.59 65.3548 1380.17 65.0082 1379.76 64.6725C1379.49 64.4559 1379.23 64.2285 1378.96 63.9902C1378.73 63.7953 1378.5 63.6112 1378.27 63.4162H1378.29C1375.72 61.1744 1372.97 58.4669 1370.2 55.1854C1361.11 44.442 1356.26 29.8865 1356.26 29.8865C1356.29 29.9298 1356.36 29.9732 1356.41 30.0165C1356.59 30.1031 1357.18 30.3955 1358.14 30.8829C1358.72 31.1753 1359.41 31.5652 1360.22 31.9659C1361.02 32.3666 1361.94 32.8106 1362.94 33.3196C1364.93 34.2943 1367.23 35.4748 1369.69 36.7203C1370.33 37.0343 1370.94 37.3809 1371.58 37.7166C1372.21 38.074 1372.86 38.4097 1373.47 38.8104C1373.78 39.0054 1374.11 39.1895 1374.42 39.3628C1374.72 39.601 1375.04 39.7852 1375.33 40.0018C1375.98 40.4025 1376.56 40.8465 1377.18 41.2689C1377.78 41.7129 1378.35 42.2002 1378.95 42.6443C1379.51 43.1316 1380.08 43.5973 1380.62 44.063C1381.73 45.0377 1382.74 46.0774 1383.71 47.0629C1384.16 47.5936 1384.64 48.0809 1385.05 48.6008C1385.48 49.1098 1385.91 49.6188 1386.29 50.1278C1386.68 50.6585 1387.04 51.1458 1387.4 51.6332C1387.73 52.1205 1388.04 52.6295 1388.34 53.0736C1388.65 53.5393 1388.91 54.0049 1389.16 54.4706C1389.4 54.893 1389.65 55.3154 1389.84 55.7161C1390.22 56.5392 1390.58 57.2214 1390.84 57.8063C1391.31 59.0084 1391.58 59.7123 1391.58 59.7123C1391.58 59.7123 1391.46 59.4633 1391.26 59.0517C1392.05 61.0228 1392.57 62.8639 1392.86 64.4667C1392.93 64.8241 1392.98 65.149 1393.01 65.4631C1393.07 65.7988 1393.09 66.1129 1393.12 66.4378C1393.15 66.6111 1393.16 66.7735 1393.18 66.9251C1393.19 67.1634 1393.19 67.3908 1393.19 67.6074C1393.2 67.759 1393.2 67.8782 1393.2 68.0081C1393.2 68.2247 1393.18 68.3872 1393.18 68.5821C1393.16 68.7121 1393.16 68.8312 1393.15 68.9612C1393.12 69.1128 1393.1 69.2536 1393.08 69.4052C1393.06 69.5352 1393.04 69.6326 1393 69.7626C1392.98 69.8709 1392.96 69.9684 1392.93 70.0767C1392.93 70.0983 1392.92 70.12 1392.92 70.1416C1396.58 74.1379 1397.13 74.896 1400.19 76.8454C1401.71 77.7984 1402.62 78.4699 1403.05 78.9139L1404.29 79.358C1404.29 79.358 1404.31 79.3796 1404.32 79.4013C1411.29 82.0655 1418.72 85.1953 1426.54 88.8559C1426.54 88.8342 1426.57 88.8559 1426.66 88.9209L1426.7 88.9425C1428.36 89.7223 1430.03 90.5237 1431.72 91.3576C1433.03 91.9749 1434.24 92.5381 1434.86 92.9063C1434.86 92.9063 1434.87 92.928 1434.89 92.928C1445.96 98.5162 1457.58 105.155 1469.37 113.061C1469.85 113.375 1470.43 113.754 1471.03 114.166C1470.96 113.472 1469.76 111.328 1467.76 107.971C1466.03 109.411 1462.95 108.014 1457.58 101.776C1456.89 100.996 1456.22 100.152 1455.56 99.296C1455.38 99.0902 1455.21 98.852 1455.04 98.6137C1454.4 97.7906 1453.79 96.9459 1453.18 96.0795C1453.02 95.8629 1452.89 95.6571 1452.74 95.4189C1452.24 94.7041 1451.73 93.9352 1451.25 93.1771C1451.08 92.9063 1450.92 92.6464 1450.75 92.3973C1450.18 91.4876 1449.63 90.5562 1449.09 89.6248C1448.92 89.3324 1448.75 89.0075 1448.58 88.7151C1448.38 88.3577 1448.18 88.0111 1448 87.6754C1447.67 87.0798 1447.35 86.4949 1447.03 85.8776C1446.98 85.7693 1446.93 85.6935 1446.87 85.5852C1446.87 85.5636 1446.86 85.5636 1446.86 85.5636C1440.07 72.4701 1435.59 57.2214 1434.97 45.3734C1434.97 45.3734 1435.23 45.6658 1435.75 46.2398C1435.79 46.3048 1436.41 46.933 1437.48 48.0376C1438.04 48.6116 1438.69 49.3047 1439.49 50.0845C1440.28 50.8642 1441.17 51.774 1442.13 52.7487C1443.1 53.7017 1444.17 54.7414 1445.29 55.8135C1445.86 56.3659 1446.47 56.8965 1447.07 57.438C1447.37 57.7305 1447.68 58.012 1447.98 58.3045C1448.29 58.5535 1448.62 58.8568 1448.94 59.1059C1450.22 60.2322 1451.62 61.3477 1452.95 62.5715C1454.27 63.7953 1455.54 65.1274 1456.78 66.5028L1457.67 67.5424C1457.96 67.8998 1458.25 68.2572 1458.52 68.6254C1459.1 69.3186 1459.64 70.0658 1460.16 70.8023C1461.21 72.2643 1462.17 73.7589 1463.04 75.2426C1463.9 76.7263 1464.66 78.1992 1465.3 79.6179C1465.47 79.9753 1465.63 80.3327 1465.79 80.6792C1465.94 81.0366 1466.07 81.3724 1466.22 81.7406C1466.49 82.4229 1466.79 83.0727 1467.01 83.7116C1467.44 85.0004 1467.88 86.1917 1468.15 87.2639C1468.44 88.3469 1468.74 89.2458 1468.88 90.0364C1469.22 91.6067 1469.41 92.4948 1469.41 92.4948C1469.41 92.4948 1469.17 91.6067 1468.76 90.058C1468.57 89.2999 1468.25 88.3902 1467.91 87.3288C1467.89 87.2639 1467.86 87.1989 1467.85 87.1339C1467.87 87.2205 1467.89 87.3072 1467.91 87.383C1468.17 88.2061 1468.41 89.0075 1468.6 89.8197C1468.64 89.928 1468.67 90.058 1468.7 90.1771C1468.92 91.0435 1469.1 91.8883 1469.25 92.733C1469.3 93.0038 1469.34 93.2637 1469.39 93.5344C1469.49 94.1517 1469.57 94.7149 1469.62 95.2889C1469.65 95.538 1469.68 95.8196 1469.7 96.0687C1469.76 96.8484 1469.82 97.6174 1469.81 98.3321C1469.79 102.415 1469.43 105.816 1468.22 107.429C1470.76 111.382 1473.28 114.642 1474.57 116.548C1475.4 117.144 1476.11 117.653 1476.54 118.01C1479.18 119.895 1481.83 121.844 1484.49 123.848C1494.75 131.678 1504.49 140.049 1513.75 148.952C1513.68 148.865 1513.65 148.822 1513.65 148.822C1513.69 148.887 1513.84 149.027 1514.02 149.222C1524.3 159.143 1533.93 169.745 1542.9 180.976C1542.9 180.933 1542.89 180.889 1542.89 180.889L1546.26 185.265C1547.09 186.348 1547.93 187.42 1548.76 188.524L1549.11 188.99C1555.62 197.665 1561.75 206.719 1567.5 216.108V216.087L1567.95 216.845C1568.13 217.116 1568.3 217.397 1568.48 217.668C1568.54 216.444 1568.55 213.877 1568.51 210.206C1566.34 209.654 1564.21 206.21 1562.17 198.271C1561.86 197.069 1561.58 195.835 1561.34 194.589C1561.26 194.253 1561.2 193.885 1561.13 193.528C1560.9 192.347 1560.69 191.156 1560.52 189.932C1560.45 189.575 1560.41 189.196 1560.36 188.828C1560.22 187.853 1560.11 186.878 1560 185.893C1559.96 185.47 1559.9 185.048 1559.86 184.604C1559.74 183.402 1559.66 182.167 1559.58 180.922C1559.54 180.478 1559.53 180.012 1559.51 179.546C1559.49 179.276 1559.48 179.016 1559.47 178.767C1559.47 178.897 1559.48 178.994 1559.49 179.124C1559.44 178.193 1559.4 177.261 1559.38 176.33C1559.4 177.012 1559.41 177.684 1559.44 178.344C1559.4 177.478 1559.37 176.633 1559.36 175.767C1559.36 175.658 1559.36 175.561 1559.36 175.453C1559.36 175.431 1559.36 175.388 1559.36 175.366C1559.36 175.388 1559.36 175.409 1559.36 175.409C1559.07 157.875 1562.38 139.215 1568.03 126.23C1568.03 126.23 1568.16 126.718 1568.4 127.649C1568.49 127.909 1568.81 128.873 1569.29 130.4C1569.57 131.309 1569.92 132.392 1570.35 133.66C1570.78 134.905 1571.24 136.302 1571.76 137.851C1572.28 139.399 1572.88 141.046 1573.5 142.8C1573.81 143.667 1574.18 144.555 1574.53 145.464C1574.71 145.93 1574.88 146.374 1575.06 146.84C1575.27 147.305 1575.45 147.771 1575.66 148.215C1576.04 149.146 1576.45 150.1 1576.87 151.074C1577.09 151.54 1577.28 152.027 1577.5 152.515L1577.81 153.273L1578.08 154.031C1578.46 155.006 1578.79 156.045 1579.15 157.052C1579.34 157.583 1579.47 158.114 1579.63 158.612C1579.8 159.143 1579.95 159.652 1580.08 160.182L1580.49 161.763C1580.62 162.294 1580.72 162.825 1580.83 163.345C1580.94 163.897 1581.06 164.406 1581.14 164.947C1581.23 165.478 1581.33 166.009 1581.41 166.539C1581.76 168.651 1581.98 170.752 1582.11 172.778C1582.24 174.814 1582.28 176.774 1582.21 178.658C1582.19 179.124 1582.17 179.568 1582.16 180.034C1582.12 180.478 1582.1 180.922 1582.06 181.366C1581.98 182.232 1581.94 183.077 1581.83 183.878C1581.63 185.503 1581.47 186.987 1581.19 188.275C1580.93 189.586 1580.75 190.712 1580.49 191.643C1580.03 193.485 1579.77 194.524 1579.77 194.524C1579.77 194.524 1579.98 193.463 1580.36 191.611C1580.58 190.68 1580.7 189.542 1580.91 188.243C1580.98 187.82 1581.05 187.376 1581.1 186.911C1581.05 187.29 1580.99 187.647 1580.93 188.015C1580.94 187.994 1580.95 187.95 1580.96 187.907C1580.93 188.145 1580.88 188.351 1580.84 188.589C1580.79 188.838 1580.75 189.098 1580.71 189.326C1580.55 190.127 1580.41 190.907 1580.24 191.698C1580.21 191.763 1580.19 191.828 1580.18 191.893C1580.01 192.629 1579.83 193.355 1579.63 194.048C1579.59 194.221 1579.55 194.362 1579.5 194.535C1579.08 196.04 1578.59 197.459 1578.06 198.77C1578 198.9 1577.95 199.029 1577.89 199.149C1577.62 199.788 1577.35 200.416 1577.06 200.99C1574.78 205.495 1572.53 209.026 1570.31 210C1571.18 218.675 1573.27 224.09 1572.75 224.978C1574.47 228 1576.17 231.032 1577.82 234.119C1586.65 250.613 1593.68 266.251 1599.3 280.742L1600.24 283.114H1600.21C1607.17 301.416 1611.84 317.824 1614.99 331.762C1615.55 330.896 1616.14 329.672 1616.77 328.231C1616.88 323.282 1616.99 318.203 1617.12 313.102C1616.48 312.127 1615.97 311.066 1615.59 310.015C1615.45 309.615 1615.32 309.214 1615.17 308.813C1615.07 308.391 1614.99 307.99 1614.89 307.611C1614.84 307.394 1614.8 307.189 1614.75 306.994C1614.71 306.777 1614.68 306.593 1614.66 306.376C1614.58 305.976 1614.53 305.575 1614.46 305.174C1614.36 304.395 1614.32 303.593 1614.25 302.824C1614.22 302.066 1614.22 301.297 1614.21 300.561C1614.21 299.846 1614.26 299.12 1614.29 298.427C1614.31 298.091 1614.31 297.745 1614.35 297.409C1614.37 297.095 1614.41 296.749 1614.44 296.434C1614.51 295.796 1614.57 295.189 1614.63 294.615C1614.7 294.171 1614.77 293.749 1614.83 293.348C1615.37 288.886 1616.41 283.677 1618.05 277.634C1618.53 260.566 1619.01 245.317 1619.31 235.451C1619.22 235.581 1619.19 235.667 1619.19 235.667L1619.28 224.621C1618.58 224.003 1617.6 223.397 1617.3 222.693C1614.46 221.09 1612.98 218.968 1613.2 217.126C1613.2 217.105 1613.2 217.083 1613.2 217.061C1613.24 215.935 1613.72 214.82 1614.49 213.737C1614.64 213.553 1614.76 213.314 1614.89 213.098C1615.2 212.524 1615.42 212.166 1615.45 212.101C1616.97 209.123 1617.76 204.845 1618.04 198.878C1618.09 197.86 1618.12 196.809 1618.14 195.705L1620.34 86.3217C1620.59 73.8238 1618.3 67.9865 1614.65 62.1599C1613.66 60.9361 1613.22 59.8965 1613.14 59.0301C1613.14 58.9867 1613.14 58.9434 1613.13 58.9001C1613.13 58.8784 1613.14 58.8568 1613.14 58.8568C1613.13 58.5427 1613.14 58.2611 1613.2 58.012C1613.2 57.9904 1613.2 57.9471 1613.22 57.9254C1613.29 57.6546 1613.4 57.3947 1613.52 57.189L1613.53 57.1673C1614.07 56.1709 1615 55.5969 1615.37 55.4128C1616.39 54.7955 1617.59 54.3082 1618.73 53.9725C1618.45 53.7017 1617.94 52.9328 1618.22 51.0917C1616.15 48.7849 1616.07 45.8716 1616.65 42.1028C1617.09 39.2436 1617.92 35.8863 1618.53 31.9334C1619.09 28.4028 1619.47 24.3849 1619.25 19.793C1618.82 10.2951 1618.55 -6.37231 1618.37 -20.2889C1618.52 -20.3755 1618.69 -20.4405 1618.86 -20.5163C1620.19 -21.047 1621.52 -21.5343 1622.87 -22H-17.1257C-17.1914 -18.6319 -17.279 -15.6103 -17.3556 -13.1411C-17.4104 -11.744 -17.3994 -10.4336 -17.3447 -9.16645C-17.2352 -6.7297 -16.9834 -4.44457 -16.6878 -2.46268C-16.2279 0.927109 -15.4177 3.26639 -15.0674 5.70314C-14.6185 8.91965 -14.6732 11.3889 -16.2389 13.36C-16.0199 14.9086 -16.4141 15.5801 -16.633 15.8184C-15.7681 16.1108 -14.8484 16.5115 -14.082 17.0421C-13.8083 17.2154 -13.0857 17.7028 -12.6696 18.5475V18.5692C-12.5711 18.7641 -12.4944 18.9699 -12.4397 19.2081C-12.4397 19.2298 -12.4288 19.2515 -12.4178 19.2731C-12.374 19.4897 -12.374 19.7388 -12.374 19.9879C-12.374 19.9879 -12.374 20.0096 -12.374 20.0312C-12.374 20.0529 -12.374 20.0962 -12.385 20.1395C-12.4397 20.876 -12.7682 21.764 -13.5127 22.8037C-16.3046 27.753 -18.0235 32.724 -17.8045 43.3807L-15.9323 136.584C-15.8995 137.537 -15.8776 138.446 -15.8338 139.291C-15.6038 144.392 -15.0017 148.031 -13.8302 150.587C-13.8192 150.63 -13.6441 150.923 -13.4032 151.432C-13.3046 151.605 -13.2061 151.811 -13.1076 151.984C-12.5054 152.894 -12.155 153.868 -12.1222 154.8C-12.1222 154.821 -12.1222 154.843 -12.1112 154.865C-11.947 156.424 -13.0638 158.233 -15.2206 159.587C-15.4506 160.204 -16.1841 160.724 -16.7206 161.233L-16.644 170.644C-16.644 170.644 -16.6659 170.579 -16.7316 170.449C-15.8228 200.21 -13.3046 287.067 -14.2462 298.85C-15.3958 313.069 -12.3412 322.751 -10.3157 329.314C-10.02 330.181 -8.57483 334.437 -8.64052 336.776C-8.65147 337.751 -8.90329 338.574 -9.72444 339.289C-9.68064 339.267 -9.6478 339.245 -9.6478 339.245C-10.4361 339.982 -10.8959 340.643 -11.1697 341.108C-11.2463 341.292 -11.3777 341.791 -11.5091 342.906C-11.6404 345.592 -12.2864 355.426 -12.2864 355.426L-12.3193 355.382C-12.3959 356.693 -12.4944 358.025 -12.582 359.378C-12.6149 359.844 -12.6368 360.559 -12.6368 361.512C-12.6587 374.876 -9.84487 432.6 -9.89961 468.989C-9.89961 473.732 -9.95435 478.086 -10.0748 481.952C-9.88866 480.577 -9.88867 479.711 -9.88867 479.711C-9.83393 480.198 -9.77918 480.707 -9.74633 481.216C-9.6259 480.176 -9.6259 479.548 -9.6259 479.548C-8.69527 486.404 -11.3886 497.97 -11.3886 497.97C-10.8959 497.905 -10.9069 499.01 -10.9069 499.01C-10.9069 499.01 -11.0054 499.053 -11.1587 499.14C-11.1587 499.183 -11.1587 499.183 -11.1587 499.183C-11.1587 499.183 -11.3448 499.291 -11.6404 499.41C-11.8485 500.32 -12.2426 501.122 -12.8119 501.869C-12.593 503.417 -12.9762 504.067 -13.1952 504.327C-12.3412 504.598 -11.4215 505.02 -10.6441 505.551C-10.5018 505.638 -10.25 505.8 -9.96531 506.06C-6.71356 502.378 -3.46182 498.847 -0.242918 495.501C0.249771 494.927 1.25705 493.93 2.31907 492.88C3.6329 491.548 4.92484 490.259 6.21678 488.992C6.23868 488.949 6.28247 488.927 6.29342 488.905C6.37006 488.819 6.39195 488.797 6.39195 488.819C12.6546 482.689 18.7311 477.209 24.4681 472.346C24.4681 472.303 24.4791 472.281 24.4791 472.281L26.3185 470.776C32.4497 465.675 38.1649 461.278 43.267 457.552L43.2779 457.531C43.2779 457.487 43.2889 457.444 43.2998 457.401C43.3655 457.184 43.4421 456.978 43.5516 456.719C43.5845 456.675 43.6064 456.632 43.6392 456.589C43.7815 456.318 43.9348 456.036 44.1538 455.744C44.7122 454.986 46.2012 452.863 48.5551 450.123C48.577 450.08 48.6208 450.036 48.6427 449.993C48.8398 449.776 49.0259 449.571 49.234 449.343C49.2997 449.257 49.3763 449.192 49.442 449.105C49.6172 448.91 49.7923 448.726 49.9785 448.509C50.0879 448.401 50.1974 448.282 50.296 448.174C50.4493 448 50.6135 447.838 50.7777 447.665C50.92 447.491 51.0514 447.351 51.2047 447.199C51.347 447.047 51.4894 446.907 51.6317 446.755C51.8178 446.56 51.9821 446.398 52.1682 446.203C52.2996 446.073 52.4309 445.954 52.5623 445.824C52.7813 445.618 52.9893 445.401 53.2083 445.185C53.3178 445.076 53.4382 444.99 53.5477 444.87C53.7776 444.643 54.0404 444.405 54.2922 444.177C54.336 444.134 54.3908 444.091 54.4455 444.026C59.9417 439.011 67.5072 433.748 76.9887 431.138C96.5868 425.788 108.028 429.026 106.287 429.741C106.243 429.763 106.189 429.806 106.145 429.828C105.444 430.423 102.849 432.622 99.2254 435.708C98.1415 436.618 96.9809 437.614 95.7656 438.643C95.1525 439.174 94.5394 439.705 93.8825 440.246C93.2474 440.798 92.5905 441.372 91.9336 441.957C90.5979 443.094 89.2293 444.286 87.8388 445.488C87.1491 446.105 86.4046 446.69 85.682 447.286C84.9484 447.86 84.2039 448.423 83.4375 448.975C81.9266 450.069 80.3609 451.065 78.7952 452.04C77.2077 452.971 75.653 453.838 74.0764 454.574C73.6822 454.769 73.299 454.953 72.9158 455.127C72.5326 455.321 72.1494 455.462 71.7553 455.635C71.3721 455.787 70.9998 455.95 70.6166 456.101C70.2334 456.253 69.8612 456.394 69.4889 456.524C69.1167 456.675 68.7554 456.794 68.3941 456.924C68.0328 457.054 67.6605 457.152 67.2992 457.26C66.6094 457.477 65.9197 457.704 65.2627 457.877C64.5839 458.029 63.9708 458.213 63.3577 458.321C62.7336 458.451 62.1643 458.549 61.6169 458.657C61.0694 458.765 60.5548 458.787 60.084 458.874C59.6023 458.917 59.1644 458.982 58.7812 459.025C57.9929 459.069 57.3688 459.09 56.9418 459.112C56.6571 459.134 56.471 459.134 56.3615 459.134C53.2959 459.556 50.7339 459.816 48.7084 459.848C48.7084 459.848 48.5661 459.848 48.4894 459.848C48.3909 459.848 48.3143 459.848 48.2267 459.848C47.7778 459.848 47.3508 459.848 46.9566 459.827C46.9566 459.827 46.8253 459.827 46.7596 459.805C46.4311 459.783 46.1246 459.74 45.8399 459.718C45.7632 459.697 45.6756 459.675 45.6756 459.675C45.3034 459.632 45.0297 459.567 44.7998 459.491C44.7341 459.469 44.6574 459.448 44.5917 459.426C44.3618 459.339 44.1538 459.253 43.9786 459.155C43.9348 459.134 43.902 459.09 43.8582 459.069C43.7596 459.004 43.6502 458.917 43.5735 458.841C35.2307 464.938 25.4754 473.202 15.0085 483.566C14.9976 483.609 14.9647 483.631 14.91 483.696C14.91 483.696 13.9903 484.649 12.8188 485.851C15.6545 484.725 20.3624 482.97 26.1105 481.173C26.1761 480.815 26.2637 480.458 26.3404 480.133C26.6031 479.418 26.8878 478.866 27.1506 478.444C29.9315 473.538 38.3948 469.39 53.7886 468.502C72.6093 467.44 88.233 473.96 88.233 473.96C88.233 473.96 88.1892 473.982 88.1344 474.003C87.8169 474.155 86.5359 474.74 84.4447 475.628C84.7623 475.476 85.0798 475.379 85.3644 475.27C86.2622 474.891 86.9739 474.588 87.4556 474.404C87.9374 474.187 88.1892 474.068 88.1892 474.068C88.1892 474.068 87.9483 474.22 87.4775 474.426C86.9958 474.653 86.306 474.978 85.4192 475.4C84.5214 475.779 83.4156 476.267 82.1674 476.797C80.9193 477.35 79.485 477.902 77.9303 478.508C77.153 478.801 76.3209 479.104 75.4778 479.397C74.6238 479.689 73.7479 480.014 72.8502 480.328C72.4013 480.501 71.9305 480.664 71.4816 480.815C71.0108 480.989 70.529 481.108 70.0583 481.281C69.0838 481.573 68.1094 481.877 67.1131 482.169C66.6094 482.342 66.1058 482.483 65.6021 482.635C65.3503 482.721 65.0985 482.808 64.8467 482.862C64.584 482.949 64.3212 483.014 64.0694 483.079C63.0292 483.349 61.9891 483.631 60.9161 483.88C59.8651 484.173 58.8031 484.454 57.7301 484.725C56.6352 484.952 55.5732 485.169 54.4784 485.407C53.3835 485.624 52.3105 485.83 51.2266 486.046C50.6792 486.154 50.1427 486.263 49.5952 486.36C49.0588 486.447 48.5114 486.534 47.9749 486.609C45.8289 486.945 43.683 487.205 41.6137 487.346C39.5554 487.476 37.5408 487.519 35.6358 487.389C33.7307 487.259 31.9242 486.967 30.3366 486.458C29.5374 486.187 28.7819 485.884 28.114 485.44C27.4571 485.017 26.8769 484.508 26.4936 483.869C26.2856 483.555 26.1542 483.209 26.0666 482.873C26.0447 482.765 26.0338 482.678 26.0119 482.602C26.001 482.516 26.0009 482.429 25.99 482.353C25.99 482.331 25.99 482.31 25.99 482.31C16.0267 485.797 9.6218 489.501 8.68021 490.259C8.48314 490.411 8.34081 490.465 8.23133 490.465C2.30812 496.681 -3.77933 503.515 -9.91056 510.988C-9.97626 511.074 -10.031 511.161 -10.0967 511.258C-12.8776 516.208 -14.5966 521.179 -14.3776 531.835L-14.1039 546.131C5.74599 537.207 18.0194 537.943 16.18 539.276C16.1362 539.297 16.0705 539.362 16.0158 539.406C15.2165 540.445 12.3699 544.127 8.41745 549.261C7.24594 550.788 5.954 552.434 4.61827 554.167C3.9285 555.033 3.23875 555.943 2.53803 556.853C1.84827 557.784 1.12566 558.715 0.413996 559.69C-1.05312 561.596 -2.54213 563.578 -4.06399 565.592C-4.81945 566.61 -5.65155 567.607 -6.4508 568.592C-7.28289 569.567 -8.10404 570.563 -8.97993 571.516C-10.4251 573.141 -11.947 574.668 -13.4908 576.152L-13.3046 585.162C-3.47276 580.83 3.24969 579.065 3.24969 579.065C3.24969 579.065 1.74973 581.664 -1.04217 586.029C-0.483787 585.206 0.00890288 584.458 0.457797 583.787C1.37748 582.346 2.10009 581.231 2.59278 580.44C3.07452 579.682 3.32634 579.26 3.32634 579.26C3.32634 579.26 3.09641 579.682 2.63657 580.505C2.18767 581.285 1.50886 582.455 0.632974 583.906C-0.253866 585.346 -1.34874 587.123 -2.60783 589.104C-3.87787 591.119 -5.33403 593.361 -6.98728 595.743C-7.79748 596.967 -8.66241 598.202 -9.5602 599.49C-10.0091 600.129 -10.4689 600.779 -10.9288 601.461C-11.4105 602.122 -11.8813 602.772 -12.374 603.454C-12.5492 603.682 -12.7353 603.942 -12.9105 604.191L-12.4944 625.028C-12.4725 625.981 -12.4397 626.89 -12.3959 627.735C-12.166 632.836 -11.5638 636.475 -10.4033 639.031C-10.3814 639.074 -10.2062 639.366 -9.97625 639.875C-9.86676 640.049 -9.79013 640.233 -9.68064 640.428C-9.07847 641.338 -8.71716 642.291 -8.69527 643.244C-8.69527 643.265 -8.68431 643.287 -8.68431 643.309C-8.50913 644.879 -9.62589 646.677 -11.7828 648.03C-12.0236 648.648 -12.7572 649.157 -13.2827 649.677L-13.2061 659.088C-13.2061 659.088 -13.228 659.023 -13.2937 658.893C-13.0419 667.481 -12.6368 680.824 -12.2317 695.737C-11.5748 695.509 -11.0711 695.336 -10.7755 695.228C-10.5675 695.098 -10.4689 695.011 -10.4689 695.011L-10.4033 695.119L-10.3376 695.228C-10.3376 695.228 -10.4361 695.293 -10.5894 695.423C-10.8521 695.823 -11.3886 696.646 -12.166 697.859C-12.166 697.903 -12.166 697.968 -12.166 698.011C-12.0456 697.859 -11.9908 697.783 -11.9908 697.783C-11.9908 697.783 -12.0456 697.892 -12.166 698.054C-12.0893 700.675 -12.0236 703.318 -11.9689 706.003C-11.7609 706.826 -11.5419 707.65 -11.3448 708.494L-11.3229 708.451L-11.1478 709.187C-9.45072 716.335 -7.88507 723.591 -6.52744 730.912C-3.16621 749.02 -0.965535 765.937 0.35925 781.575C0.720555 780.135 1.26799 778.694 1.9906 777.092C3.14021 774.514 6.88464 765.601 9.34808 759.471C9.32618 759.45 9.32618 759.449 9.30429 759.428C9.12911 759.276 8.86634 759.092 8.57072 758.789C7.9576 758.215 7.08172 757.283 6.18393 755.908C5.29709 754.554 4.4212 752.735 3.73144 750.515C3.04167 748.295 2.54898 745.695 2.33001 742.836C2.10009 739.977 2.11103 736.847 2.3519 733.577C2.58183 730.317 3.00882 726.895 3.67669 723.386C4.33361 719.877 5.15475 716.303 6.17298 712.707C6.30436 712.263 6.43575 711.819 6.56713 711.375C6.70946 710.931 6.84085 710.487 6.98318 710.043C7.24595 709.133 7.53061 708.245 7.80433 707.357C8.07804 706.447 8.35175 705.559 8.62547 704.65L9.50136 701.964L10.3772 699.3C10.6838 698.39 11.0013 697.524 11.3079 696.635C11.921 694.859 12.5232 693.105 13.1801 691.372C14.4282 687.885 15.7311 684.517 17.0231 681.235C17.6691 679.589 18.2822 677.997 18.9281 676.438C19.5741 674.867 20.2091 673.351 20.8222 671.846C21.4463 670.362 22.0485 668.922 22.6397 667.535C23.2419 666.16 23.8112 664.806 24.3696 663.517C25.4864 660.961 26.5265 658.611 27.479 656.543C28.4206 654.485 29.2637 652.687 29.9534 651.214C30.6432 649.731 31.2016 648.594 31.5848 647.792C31.9242 647.099 32.1212 646.709 32.165 646.633L32.176 646.612C32.176 646.612 40.3437 670.687 37.1685 709.729C34.946 737.248 26.417 752.583 18.9829 758.107C18.9281 758.15 18.8734 758.193 18.8187 758.237C18.5559 758.431 18.3041 758.594 18.0523 758.767C17.9318 758.832 17.8333 758.919 17.7238 758.984C17.4391 759.157 17.1435 759.32 16.8588 759.449C16.7931 759.493 16.7275 759.536 16.6618 759.558C16.3005 759.731 15.9501 759.872 15.6107 760.002C15.5559 760.023 15.5012 760.045 15.4465 760.067C15.1618 760.153 14.8771 760.24 14.6034 760.316C14.5049 760.338 14.4064 760.359 14.3297 760.359C14.0998 760.424 13.8589 760.446 13.629 760.489C13.5305 760.489 13.4319 760.489 13.3443 760.511C13.1144 760.511 12.8954 760.511 12.6765 760.511C12.5889 760.511 12.5013 760.511 12.4246 760.489C12.1947 760.489 11.9758 760.446 11.7568 760.403C11.702 760.381 11.6254 760.359 11.6254 760.359C11.286 760.273 11.0123 760.208 10.7495 760.089C2.7789 780.947 1.49791 781.618 1.45412 784.413C1.43222 785.918 1.25705 788.138 0.972382 789.135L1.05996 790.261C1.05996 790.261 1.04902 790.239 1.02713 790.239C2.78986 816.448 2.13293 838.682 0.600123 856.237L0.578228 856.551C0.173128 861.143 -0.28671 865.432 -0.779398 869.374C-1.929 878.558 -3.28664 886.485 -4.65522 893.146C-2.60782 903.846 -0.461888 921.824 -2.356 945.141C-3.08956 954.26 -4.53478 962.025 -6.3851 968.555C-6.3413 968.913 -6.29752 969.313 -6.27562 969.714C-6.14424 968.674 -6.15518 968.046 -6.15518 968.046C-5.22454 974.901 -7.91791 986.468 -7.91791 986.468C-7.42522 986.403 -7.43617 987.508 -7.43617 987.508C-7.43617 987.508 -7.52376 987.551 -7.67704 987.638C-7.67704 987.659 -7.67704 987.681 -7.67704 987.681C-7.67704 987.681 -8.13689 987.908 -8.95803 988.298C-9.1989 989.035 -9.52736 989.739 -10.031 990.367C-9.81202 991.915 -10.1952 992.565 -10.4142 992.825C-9.5602 993.096 -8.64052 993.507 -7.87412 994.027C-7.58946 994.201 -6.87779 994.688 -6.46174 995.533L-6.4508 995.554C-6.35226 995.749 -6.26467 995.955 -6.22088 996.193C-6.20993 996.215 -6.19898 996.237 -6.19898 996.237C-6.15519 996.486 -6.15518 996.724 -6.15518 996.973C-6.15518 996.973 -6.15518 996.995 -6.15518 997.016C-6.15518 997.06 -6.15518 997.103 -6.15518 997.125C-6.22087 997.861 -6.53838 998.749 -7.29384 999.789C-10.0748 1004.76 -11.7937 1009.73 -11.5857 1020.37L-9.71348 1113.58C-9.68064 1114.51 -9.64779 1115.42 -9.61495 1116.29C-9.37408 1121.37 -8.77191 1125.01 -7.61135 1127.58C-7.58945 1127.6 -7.41427 1127.92 -7.18435 1128.41C-7.07486 1128.6 -6.98728 1128.78 -6.88874 1128.96C-6.28657 1129.87 -5.92526 1130.84 -5.89241 1131.8V1131.84C-5.72818 1133.3 -6.69166 1134.95 -8.55293 1136.26H1608.44C1609.05 1094.71 1611.68 1042.19 1611.61 1028.6C1611.59 1027.57 1611.56 1026.72 1611.53 1026.19Z" fill="url(#paint14_radial_19_3)"/>
<path d="M1467.78 86.8307C1467.83 86.9606 1467.86 87.0798 1467.9 87.2097C1467.89 87.1881 1467.89 87.1664 1467.89 87.1448C1467.85 87.0473 1467.82 86.939 1467.78 86.8307Z" fill="url(#paint15_radial_19_3)"/>
<path d="M1522.58 727.566C1522.93 727.837 1523.47 728.248 1524.15 728.746C1524.84 729.255 1525.65 729.884 1526.59 730.609C1526.63 730.631 1526.69 730.674 1526.73 730.718C1524.79 729.093 1523.3 727.902 1522.39 727.414C1522.46 727.479 1522.5 727.501 1522.58 727.566Z" fill="url(#paint16_radial_19_3)"/>
<path d="M1607.97 521.536C1608.54 521.688 1609.06 521.753 1609.56 521.85C1610.04 521.915 1610.49 522.002 1610.88 522.078C1611.56 522.164 1612.11 522.229 1612.52 522.273V522.251C1611.09 522.034 1609.56 521.807 1607.93 521.514C1607.95 521.536 1607.97 521.536 1607.97 521.536Z" fill="url(#paint17_radial_19_3)"/>
<path d="M1430.97 137.244C1431.49 137.537 1432.22 137.937 1433.17 138.49C1434.12 139.042 1435.25 139.692 1436.58 140.482C1436.58 140.482 1436.64 140.504 1436.67 140.526C1433.99 138.815 1431.94 137.58 1430.7 137.104C1430.78 137.136 1430.86 137.179 1430.97 137.244Z" fill="#D7EDF3"/>
<path d="M1365.57 77.5927C1366.06 77.5277 1366.51 77.4627 1366.91 77.4194C1367.91 77.2245 1368.64 77.1053 1369.05 77.0403C1367.52 77.2786 1365.86 77.5277 1364.1 77.7551C1364.63 77.7443 1365.12 77.636 1365.57 77.5927Z" fill="#D7EDF3"/>
<path d="M1494.77 167.698C1494.97 167.72 1495.14 167.742 1495.34 167.785C1495.52 167.785 1495.68 167.807 1495.87 167.828C1496.22 167.85 1496.56 167.872 1496.89 167.915C1497.55 167.958 1498.15 168.002 1498.7 168.045C1500.09 168.088 1501.1 168.11 1501.66 168.132C1499.54 168.023 1497.23 167.882 1494.77 167.709V167.698Z" fill="url(#paint18_radial_19_3)"/>
<path d="M1312.82 65.3656C1313.23 65.4956 1313.84 65.6797 1314.62 65.918C1315.39 66.1887 1316.33 66.492 1317.4 66.8493C1317.44 66.8493 1317.48 66.871 1317.48 66.871C1315.27 66.0263 1313.55 65.4306 1312.57 65.279C1312.64 65.3007 1312.72 65.3223 1312.82 65.3656Z" fill="#D7EDF3"/>
</g>
<defs>
<radialGradient id="paint0_radial_19_3" cx="0" cy="0" r="1" gradientUnits="userSpaceOnUse" gradientTransform="translate(524.539 1247.93) scale(1610.94 1599.78)">
<stop stop-color="#D7EDF3"/>
<stop offset="0.2484" stop-color="#D8EDF0"/>
<stop offset="0.4198" stop-color="#DBEDE7"/>
<stop offset="0.568" stop-color="#DFEDD8"/>
<stop offset="0.7031" stop-color="#E6EEC2"/>
<stop offset="0.8292" stop-color="#EFEEA6"/>
<stop offset="0.9471" stop-color="#F9EF84"/>
<stop offset="1" stop-color="#FFEF72"/>
</radialGradient>
<radialGradient id="paint1_radial_19_3" cx="0" cy="0" r="1" gradientUnits="userSpaceOnUse" gradientTransform="translate(534.489 1253.5) scale(1639.05 1621.3)">
<stop stop-color="#D7EDF3"/>
<stop offset="0.2484" stop-color="#D8EDF0"/>
<stop offset="0.4198" stop-color="#DBEDE7"/>
<stop offset="0.568" stop-color="#DFEDD8"/>
<stop offset="0.7031" stop-color="#E6EEC2"/>
<stop offset="0.8292" stop-color="#EFEEA6"/>
<stop offset="0.9471" stop-color="#F9EF84"/>
<stop offset="1" stop-color="#FFEF72"/>
</radialGradient>
<radialGradient id="paint2_radial_19_3" cx="0" cy="0" r="1" gradientUnits="userSpaceOnUse" gradientTransform="translate(535.965 1255.45) scale(1644.43 1626.58)">
<stop stop-color="#D7EDF3"/>
<stop offset="0.2484" stop-color="#D8EDF0"/>
<stop offset="0.4198" stop-color="#DBEDE7"/>
<stop offset="0.568" stop-color="#DFEDD8"/>
<stop offset="0.7031" stop-color="#E6EEC2"/>
<stop offset="0.8292" stop-color="#EFEEA6"/>
<stop offset="0.9471" stop-color="#F9EF84"/>
<stop offset="1" stop-color="#FFEF72"/>
</radialGradient>
<radialGradient id="paint3_radial_19_3" cx="0" cy="0" r="1" gradientUnits="userSpaceOnUse" gradientTransform="translate(5.73459 754.773) scale(0.0583951 0.0582679)">
<stop stop-color="#D7EDF3"/>
<stop offset="0.2484" stop-color="#D8EDF0"/>
<stop offset="0.4198" stop-color="#DBEDE7"/>
<stop offset="0.568" stop-color="#DFEDD8"/>
<stop offset="0.7031" stop-color="#E6EEC2"/>
<stop offset="0.8292" stop-color="#EFEEA6"/>
<stop offset="0.9471" stop-color="#F9EF84"/>
<stop offset="1" stop-color="#FFEF72"/>
</radialGradient>
<radialGradient id="paint4_radial_19_3" cx="0" cy="0" r="1" gradientUnits="userSpaceOnUse" gradientTransform="translate(6.3375 755.873) scale(0.0769484 0.0766022)">
<stop stop-color="#D7EDF3"/>
<stop offset="0.2484" stop-color="#D8EDF0"/>
<stop offset="0.4198" stop-color="#DBEDE7"/>
<stop offset="0.568" stop-color="#DFEDD8"/>
<stop offset="0.7031" stop-color="#E6EEC2"/>
<stop offset="0.8292" stop-color="#EFEEA6"/>
<stop offset="0.9471" stop-color="#F9EF84"/>
<stop offset="1" stop-color="#FFEF72"/>
</radialGradient>
<radialGradient id="paint5_radial_19_3" cx="0" cy="0" r="1" gradientUnits="userSpaceOnUse" gradientTransform="translate(535.839 1250.7) scale(1635.78 1618.05)">
<stop stop-color="#D7EDF3"/>
<stop offset="0.2484" stop-color="#D8EDF0"/>
<stop offset="0.4198" stop-color="#DBEDE7"/>
<stop offset="0.568" stop-color="#DFEDD8"/>
<stop offset="0.7031" stop-color="#E6EEC2"/>
<stop offset="0.8292" stop-color="#EFEEA6"/>
<stop offset="0.9471" stop-color="#F9EF84"/>
<stop offset="1" stop-color="#FFEF72"/>
</radialGradient>
<radialGradient id="paint6_radial_19_3" cx="0" cy="0" r="1" gradientUnits="userSpaceOnUse" gradientTransform="translate(534.245 1240.11) scale(1618.42 1600.87)">
<stop stop-color="#D7EDF3"/>
<stop offset="0.2484" stop-color="#D8EDF0"/>
<stop offset="0.4198" stop-color="#DBEDE7"/>
<stop offset="0.568" stop-color="#DFEDD8"/>
<stop offset="0.7031" stop-color="#E6EEC2"/>
<stop offset="0.8292" stop-color="#EFEEA6"/>
<stop offset="0.9471" stop-color="#F9EF84"/>
<stop offset="1" stop-color="#FFEF72"/>
</radialGradient>
<radialGradient id="paint7_radial_19_3" cx="0" cy="0" r="1" gradientUnits="userSpaceOnUse" gradientTransform="translate(5.17915 753.547) scale(0.0553408 0.0550308)">
<stop stop-color="#D7EDF3"/>
<stop offset="0.2484" stop-color="#D8EDF0"/>
<stop offset="0.4198" stop-color="#DBEDE7"/>
<stop offset="0.568" stop-color="#DFEDD8"/>
<stop offset="0.7031" stop-color="#E6EEC2"/>
<stop offset="0.8292" stop-color="#EFEEA6"/>
<stop offset="0.9471" stop-color="#F9EF84"/>
<stop offset="1" stop-color="#FFEF72"/>
</radialGradient>
<radialGradient id="paint8_radial_19_3" cx="0" cy="0" r="1" gradientUnits="userSpaceOnUse" gradientTransform="translate(1410.27 1254) scale(1639.96 1622.21)">
<stop stop-color="#D7EDF3"/>
<stop offset="0.2484" stop-color="#D8EDF0"/>
<stop offset="0.4198" stop-color="#DBEDE7"/>
<stop offset="0.568" stop-color="#DFEDD8"/>
<stop offset="0.7031" stop-color="#E6EEC2"/>
<stop offset="0.8292" stop-color="#EFEEA6"/>
<stop offset="0.9471" stop-color="#F9EF84"/>
<stop offset="1" stop-color="#FFEF72"/>
</radialGradient>
<radialGradient id="paint9_radial_19_3" cx="0" cy="0" r="1" gradientUnits="userSpaceOnUse" gradientTransform="translate(4.13596 750.532) scale(0.0778725 0.0777075)">
<stop stop-color="#D7EDF3"/>
<stop offset="0.2484" stop-color="#D8EDF0"/>
<stop offset="0.4198" stop-color="#DBEDE7"/>
<stop offset="0.568" stop-color="#DFEDD8"/>
<stop offset="0.7031" stop-color="#E6EEC2"/>
<stop offset="0.8292" stop-color="#EFEEA6"/>
<stop offset="0.9471" stop-color="#F9EF84"/>
<stop offset="1" stop-color="#FFEF72"/>
</radialGradient>
<radialGradient id="paint10_radial_19_3" cx="0" cy="0" r="1" gradientUnits="userSpaceOnUse" gradientTransform="translate(1410.06 1253.23) scale(1638.57 1620.84)">
<stop stop-color="#D7EDF3"/>
<stop offset="0.2484" stop-color="#D8EDF0"/>
<stop offset="0.4198" stop-color="#DBEDE7"/>
<stop offset="0.568" stop-color="#DFEDD8"/>
<stop offset="0.7031" stop-color="#E6EEC2"/>
<stop offset="0.8292" stop-color="#EFEEA6"/>
<stop offset="0.9471" stop-color="#F9EF84"/>
<stop offset="1" stop-color="#FFEF72"/>
</radialGradient>
<radialGradient id="paint11_radial_19_3" cx="0" cy="0" r="1" gradientUnits="userSpaceOnUse" gradientTransform="translate(1410.14 1249.72) scale(1627.57 1610.07)">
<stop stop-color="#D7EDF3"/>
<stop offset="0.2484" stop-color="#D8EDF0"/>
<stop offset="0.4198" stop-color="#DBEDE7"/>
<stop offset="0.568" stop-color="#DFEDD8"/>
<stop offset="0.7031" stop-color="#E6EEC2"/>
<stop offset="0.8292" stop-color="#EFEEA6"/>
<stop offset="0.9471" stop-color="#F9EF84"/>
<stop offset="1" stop-color="#FFEF72"/>
</radialGradient>
<radialGradient id="paint12_radial_19_3" cx="0" cy="0" r="1" gradientUnits="userSpaceOnUse" gradientTransform="translate(1410.11 1244.73) scale(1627.56 1609.91)">
<stop stop-color="#D7EDF3"/>
<stop offset="0.2484" stop-color="#D8EDF0"/>
<stop offset="0.4198" stop-color="#DBEDE7"/>
<stop offset="0.568" stop-color="#DFEDD8"/>
<stop offset="0.7031" stop-color="#E6EEC2"/>
<stop offset="0.8292" stop-color="#EFEEA6"/>
<stop offset="0.9471" stop-color="#F9EF84"/>
<stop offset="1" stop-color="#FFEF72"/>
</radialGradient>
<radialGradient id="paint13_radial_19_3" cx="0" cy="0" r="1" gradientUnits="userSpaceOnUse" gradientTransform="translate(1406.33 1252.27) scale(1629.96 1620.76)">
<stop stop-color="#D7EDF3"/>
<stop offset="0.2484" stop-color="#D8EDF0"/>
<stop offset="0.4198" stop-color="#DBEDE7"/>
<stop offset="0.568" stop-color="#DFEDD8"/>
<stop offset="0.7031" stop-color="#E6EEC2"/>
<stop offset="0.8292" stop-color="#EFEEA6"/>
<stop offset="0.9471" stop-color="#F9EF84"/>
<stop offset="1" stop-color="#FFEF72"/>
</radialGradient>
<radialGradient id="paint14_radial_19_3" cx="0" cy="0" r="1" gradientUnits="userSpaceOnUse" gradientTransform="translate(1166.63 1253.66) scale(3172.23 3137.86)">
<stop stop-color="#D7EDF3"/>
<stop offset="0.2484" stop-color="#D8EDF0"/>
</radialGradient>
<radialGradient id="paint15_radial_19_3" cx="0" cy="0" r="1" gradientUnits="userSpaceOnUse" gradientTransform="translate(1410.44 1283.96) scale(1694.57 1663.71)">
<stop stop-color="#D7EDF3"/>
<stop offset="0.2484" stop-color="#D8EDF0"/>
<stop offset="0.4198" stop-color="#DBEDE7"/>
<stop offset="0.568" stop-color="#DFEDD8"/>
<stop offset="0.7031" stop-color="#E6EEC2"/>
<stop offset="0.8292" stop-color="#EFEEA6"/>
<stop offset="0.9471" stop-color="#F9EF84"/>
<stop offset="1" stop-color="#FFEF72"/>
</radialGradient>
<radialGradient id="paint16_radial_19_3" cx="0" cy="0" r="1" gradientUnits="userSpaceOnUse" gradientTransform="translate(1410.02 1255.55) scale(1645.15 1627.34)">
<stop stop-color="#D7EDF3"/>
<stop offset="0.2484" stop-color="#D8EDF0"/>
<stop offset="0.4198" stop-color="#DBEDE7"/>
<stop offset="0.568" stop-color="#DFEDD8"/>
<stop offset="0.7031" stop-color="#E6EEC2"/>
<stop offset="0.8292" stop-color="#EFEEA6"/>
<stop offset="0.9471" stop-color="#F9EF84"/>
<stop offset="1" stop-color="#FFEF72"/>
</radialGradient>
<radialGradient id="paint17_radial_19_3" cx="0" cy="0" r="1" gradientUnits="userSpaceOnUse" gradientTransform="translate(1409.94 1268.85) scale(1671.26 1653.16)">
<stop stop-color="#D7EDF3"/>
<stop offset="0.2484" stop-color="#D8EDF0"/>
<stop offset="0.4198" stop-color="#DBEDE7"/>
<stop offset="0.568" stop-color="#DFEDD8"/>
<stop offset="0.7031" stop-color="#E6EEC2"/>
<stop offset="0.8292" stop-color="#EFEEA6"/>
<stop offset="0.9471" stop-color="#F9EF84"/>
<stop offset="1" stop-color="#FFEF72"/>
</radialGradient>
<radialGradient id="paint18_radial_19_3" cx="0" cy="0" r="1" gradientUnits="userSpaceOnUse" gradientTransform="translate(1409.96 1260.66) scale(1650.04 1632.13)">
<stop stop-color="#D7EDF3"/>
<stop offset="0.2484" stop-color="#D8EDF0"/>
<stop offset="0.4198" stop-color="#DBEDE7"/>
<stop offset="0.568" stop-color="#DFEDD8"/>
</radialGradient>
</defs>
</svg>
