<?xml version="1.0" encoding="utf-8"?>
<!-- Generator: Adobe Illustrator 27.5.0, SVG Export Plug-In . SVG Version: 6.00 Build 0)  -->
<svg version="1.1" xmlns="http://www.w3.org/2000/svg" xmlns:xlink="http://www.w3.org/1999/xlink" x="0px" y="0px"
	 viewBox="0 0 1200 800" style="enable-background:new 0 0 1200 800;" xml:space="preserve">
<g id="Background">
	<rect style="fill:#FAFDFF;" width="1200" height="800"/>
</g>
<g id="Graphic_elements">
	<g>
		<defs>
			<rect id="SVGID_1_" width="1200" height="800"/>
		</defs>
		<clipPath id="SVGID_00000064315413138907991750000009716565185592012720_">
			<use xlink:href="#SVGID_1_"  style="overflow:visible;"/>
		</clipPath>
		<g style="clip-path:url(#SVGID_00000064315413138907991750000009716565185592012720_);">
			<path style="fill:#B3DCF0;" d="M170.756,837.956L25.402,692.603c-4.4-4.4-4.4-11.533,0-15.933l145.354-145.354
				c4.4-4.4,11.533-4.4,15.933,0L332.042,676.67c4.4,4.4,4.4,11.533,0,15.933L186.688,837.956
				C182.289,842.356,175.155,842.356,170.756,837.956z"/>
			
				<rect x="239.774" y="745.688" transform="matrix(0.7071 0.7071 -0.7071 0.7071 711.5558 1.6216)" style="fill:none;stroke:#B3DCF0;stroke-linecap:round;stroke-linejoin:round;stroke-miterlimit:10;" width="228.093" height="228.093"/>
			<path style="fill:#F2F9FF;" d="M170.863,127.792L25.51-17.561c-4.4-4.4-4.4-11.533,0-15.933l145.353-145.354
				c4.4-4.4,11.533-4.4,15.933,0L332.15-33.494c4.4,4.4,4.4,11.533,0,15.933L186.796,127.792
				C182.396,132.192,175.263,132.192,170.863,127.792z"/>
			<path style="fill:#B3DCF0;" d="M-9.174,307.83l-145.354-145.354c-4.4-4.4-4.4-11.533,0-15.933L-9.174,1.19
				c4.4-4.4,11.533-4.4,15.933,0l145.353,145.354c4.4,4.4,4.4,11.533,0,15.933L6.758,307.83C2.359,312.23-4.775,312.23-9.174,307.83
				z"/>
			
				<rect x="242.297" y="37.94" transform="matrix(0.7071 0.7071 -0.7071 0.7071 211.8413 -207.4573)" style="opacity:0.5;fill:none;stroke:#62ACD9;stroke-linecap:round;stroke-linejoin:round;stroke-miterlimit:10;" width="228.093" height="228.093"/>
			<path style="fill:#F2F9FF;" d="M525.892,482.821L380.538,337.467c-4.4-4.4-4.4-11.533,0-15.933l145.353-145.354
				c4.4-4.4,11.533-4.4,15.933,0l145.353,145.354c4.4,4.4,4.4,11.533,0,15.933L541.824,482.821
				C537.425,487.22,530.291,487.22,525.892,482.821z"/>
			<path style="fill:#E7F6FF;" d="M-6.758,660.442l-145.353-145.354c-4.4-4.4-4.4-11.533,0-15.933L168.34,178.704
				c4.4-4.4,11.533-4.4,15.933,0l145.354,145.353c4.4,4.4,4.4,11.533,0,15.933L9.174,660.442
				C4.775,664.842-2.359,664.842-6.758,660.442z"/>
			<path style="fill:#77BAD5;" d="M345.854,662.858L200.501,517.505c-4.4-4.4-4.4-11.533,0-15.933l145.354-145.354
				c4.4-4.4,11.533-4.4,15.933,0L507.14,501.572c4.4,4.4,4.4,11.533,0,15.933L361.787,662.858
				C357.387,667.258,350.254,667.258,345.854,662.858z"/>
		</g>
	</g>
</g>
</svg>
