<svg width="362" height="100" viewBox="0 0 362 100" fill="none" xmlns="http://www.w3.org/2000/svg">
<g clip-path="url(#clip0_3_283)">
<mask id="mask0_3_283" style="mask-type:luminance" maskUnits="userSpaceOnUse" x="0" y="0" width="100" height="100">
<path d="M100 0H0V100H100V0Z" fill="white"/>
</mask>
<g mask="url(#mask0_3_283)">
<mask id="mask1_3_283" style="mask-type:luminance" maskUnits="userSpaceOnUse" x="0" y="0" width="100" height="100">
<path d="M100 0H0V100H100V0Z" fill="white"/>
</mask>
<g mask="url(#mask1_3_283)">
<mask id="mask2_3_283" style="mask-type:luminance" maskUnits="userSpaceOnUse" x="0" y="1" width="100" height="99">
<path d="M100 1.76056H0V100H100V1.76056Z" fill="white"/>
</mask>
<g mask="url(#mask2_3_283)">
<mask id="mask3_3_283" style="mask-type:luminance" maskUnits="userSpaceOnUse" x="0" y="1" width="100" height="99">
<path d="M100 1.76056H0V100H100V1.76056Z" fill="white"/>
</mask>
<g mask="url(#mask3_3_283)">
<path d="M10.5377 64.6609L11.0123 66.0645L4.65743 66.1075L4.10596 64.4757L9.21114 60.739L9.71189 62.2187L5.50293 64.931L10.5377 64.6609Z" fill="#111111"/>
<path d="M11.5375 67.2263L12.1343 68.5371L6.61724 70.9626L6.02051 69.6518L11.5375 67.2263ZM14.6288 66.6395C14.7411 66.8865 14.7531 67.1215 14.6637 67.3438C14.5792 67.5682 14.4231 67.7303 14.1946 67.8307C13.9633 67.9327 13.7358 67.9391 13.5127 67.8494C13.2913 67.7638 13.1238 67.5972 13.0114 67.3506C12.9034 67.1132 12.8898 66.8833 12.9705 66.6606C13.0529 66.4407 13.21 66.2801 13.4418 66.1781C13.6698 66.0781 13.8967 66.0701 14.122 66.1546C14.3517 66.2411 14.5208 66.4028 14.6288 66.6395Z" fill="#111111"/>
<path d="M14.2765 71.8506C14.6971 72.537 14.8597 73.2609 14.7642 74.0239L13.7387 73.9757C13.7507 73.3745 13.6296 72.8665 13.3759 72.4518C13.2265 72.2079 13.0628 72.0446 12.8855 71.9625C12.7072 71.8852 12.5403 71.8924 12.3854 71.9844C12.2675 72.0542 12.1873 72.141 12.1448 72.245C12.0995 72.3506 12.0897 72.5 12.1148 72.6928C12.1382 72.8824 12.1982 73.1506 12.2959 73.4956C12.4819 74.1374 12.5337 74.6637 12.4513 75.0737C12.3657 75.486 12.1006 75.8235 11.6566 76.086C11.1411 76.3908 10.6114 76.4235 10.0676 76.1848C9.52535 75.9482 9.06714 75.5255 8.69352 74.9155C8.4393 74.5008 8.27348 74.082 8.19547 73.6581C8.11639 73.2394 8.11364 72.8382 8.1873 72.4538L9.27061 72.6482C9.20025 73.2924 9.31264 73.8557 9.60774 74.3374C9.77575 74.6119 9.96611 74.7984 10.1794 74.8968C10.39 74.9924 10.5934 74.9828 10.7887 74.8669C10.9376 74.7789 11.0396 74.6793 11.0942 74.5677C11.1438 74.4553 11.1542 74.3 11.1253 74.1008C11.098 73.9044 11.0314 73.6099 10.9251 73.2155C10.75 72.6123 10.7167 72.1123 10.8253 71.7163C10.9333 71.3199 11.1798 71.0079 11.5649 70.7804C11.8508 70.6115 12.1584 70.5414 12.4895 70.5701C12.8185 70.596 13.1397 70.7199 13.4528 70.9414C13.7665 71.1633 14.0409 71.4661 14.2765 71.8506Z" fill="#111111"/>
<path d="M16.2752 75.1522L17.1524 76.3016L12.3155 79.8629L11.439 78.7135L16.2752 75.1522ZM19.1586 73.9104C19.3239 74.1267 19.3878 74.3534 19.3512 74.5892C19.319 74.8263 19.2034 75.0187 19.0032 75.1661C18.8003 75.3155 18.5799 75.3705 18.3421 75.3327C18.1064 75.2968 17.9062 75.1709 17.7409 74.9542C17.5822 74.7462 17.5173 74.5251 17.5467 74.2896C17.5778 74.0578 17.6951 73.8669 17.898 73.7175C18.0982 73.5701 18.3175 73.5131 18.5559 73.547C18.7992 73.5813 19.0005 73.7024 19.1586 73.9104Z" fill="#111111"/>
<path d="M20.3738 79.4291C20.9962 80.0558 21.2776 80.7406 21.2193 81.4825C21.1582 82.2219 20.7736 82.9303 20.0656 83.6088C19.6139 84.041 19.135 84.3434 18.6277 84.5155C18.1231 84.6853 17.6273 84.7131 17.1391 84.5992C16.6487 84.4821 16.1986 84.2171 15.7884 83.804C15.166 83.1769 14.8829 82.4908 14.9391 81.7466C14.9948 81.0024 15.3799 80.2884 16.0934 79.6052C16.5478 79.1705 17.0256 78.8693 17.5274 78.7016C18.0342 78.5347 18.5317 78.5104 19.0199 78.6299C19.513 78.7494 19.9641 79.0155 20.3738 79.4291ZM19.5795 80.1888C18.9675 79.5721 18.1646 79.739 17.1707 80.6908C16.6596 81.1801 16.3579 81.6183 16.2657 82.0048C16.1735 82.3912 16.2793 82.7374 16.5827 83.0434C16.886 83.3494 17.2372 83.461 17.6354 83.3777C18.0336 83.2948 18.4858 83.0108 18.9921 82.5263C19.5005 82.039 19.7999 81.604 19.8894 81.2199C19.9816 80.8335 19.8785 80.4892 19.5795 80.1888Z" fill="#111111"/>
<path d="M26.1828 84.253C26.6148 84.5713 26.8532 84.947 26.8985 85.3805C26.9459 85.8111 26.7954 86.2546 26.4474 86.7103L23.8236 90.1498L22.6535 89.288L25.1409 86.0283C25.3559 85.7462 25.4562 85.5111 25.4415 85.3219C25.43 85.1354 25.3253 84.9693 25.1284 84.8247C24.9282 84.6773 24.7002 84.6048 24.4443 84.6079C24.1912 84.6131 23.8988 84.6761 23.5672 84.7964L21.0443 88.1032L19.8743 87.2418L23.499 82.4904L24.5125 83.237L24.1312 83.9235C24.9129 83.7115 25.5969 83.8215 26.1828 84.253Z" fill="#111111"/>
<path d="M27.481 90.3143C27.7145 90.4438 27.8656 90.6263 27.9349 90.8601C28.0053 91.1 27.9753 91.3322 27.8454 91.5585C27.774 91.6824 27.6807 91.798 27.5645 91.9055C27.4489 92.0131 27.2869 92.1422 27.0796 92.2932L25.5975 93.3836L24.8213 92.953L26.1959 91.496C26.0573 91.2227 26.071 90.9422 26.2368 90.6538C26.3634 90.4338 26.5461 90.29 26.785 90.2219C27.025 90.1589 27.2574 90.19 27.481 90.3143Z" fill="#111111"/>
<path d="M36.2447 94.4438L36.4264 95.4773C36.1744 95.5498 35.9125 95.5813 35.6398 95.5713C35.3649 95.5566 35.0976 95.5052 34.8374 95.4167C34.2793 95.2159 33.909 94.9127 33.7257 94.5076C33.5424 94.1024 33.5571 93.5988 33.7693 92.9968L34.8139 90.0351L33.9199 89.7307L34.2635 88.757L35.157 89.061L35.5945 87.8195L37.0335 88.1283L36.5387 89.5315L37.8692 89.9837L37.3815 90.9084L36.1951 90.5052L35.1636 93.4315C35.0665 93.7076 35.0458 93.9227 35.1025 94.0777C35.1554 94.2315 35.2869 94.3442 35.4958 94.4147C35.7047 94.4861 35.9545 94.4956 36.2447 94.4438Z" fill="#111111"/>
<path d="M41.8673 90.7124C42.7398 90.8928 43.3621 91.3068 43.7342 91.955C44.1028 92.6024 44.1852 93.4016 43.9812 94.3526C43.8514 94.9586 43.6251 95.4721 43.3016 95.8928C42.9793 96.3096 42.5824 96.6044 42.1123 96.7765C41.639 96.9478 41.1147 96.9741 40.5402 96.855C39.6681 96.6745 39.0441 96.2602 38.6682 95.6116C38.2924 94.9626 38.2073 94.159 38.4124 93.2016C38.5428 92.5917 38.7691 92.0805 39.091 91.6662C39.4172 91.2498 39.8165 90.9578 40.29 90.7901C40.7673 90.6195 41.2932 90.5932 41.8673 90.7124ZM41.639 91.7781C40.7809 91.6008 40.2087 92.1789 39.9227 93.5136C39.7756 94.2 39.7734 94.7283 39.9163 95.1C40.0585 95.4717 40.343 95.7016 40.7689 95.7893C41.1944 95.8773 41.549 95.7781 41.8326 95.4909C42.1163 95.204 42.3307 94.7207 42.4761 94.0415C42.6223 93.3586 42.6243 92.8335 42.4805 92.4654C42.3382 92.094 42.0573 91.865 41.639 91.7781Z" fill="#111111"/>
<path d="M51.0885 90.9L51.4045 92.0621C51.0117 92.1781 50.4256 92.2203 49.6471 92.1888C50.0132 92.3709 50.2818 92.5868 50.4523 92.8354C50.62 93.0848 50.6957 93.3924 50.6798 93.7589C50.6634 94.1502 50.5527 94.4912 50.3487 94.7824C50.1411 95.0733 49.8487 95.2964 49.4722 95.4522C49.0957 95.6115 48.6595 95.6808 48.1631 95.6605C47.8913 95.6494 47.6535 95.6099 47.4503 95.541C47.279 95.6446 47.1893 95.7872 47.1818 95.9681C47.1702 96.2458 47.4069 96.3944 47.8921 96.4143L48.8208 96.4518C49.2591 96.4693 49.6411 96.5561 49.9686 96.7119C50.2921 96.8673 50.5407 97.0777 50.7144 97.3406C50.8846 97.6075 50.9627 97.9012 50.9495 98.2215C50.9244 98.8191 50.6455 99.2745 50.1144 99.588C49.5826 99.898 48.8296 100.033 47.8559 99.9932C47.1571 99.9649 46.6101 99.8717 46.214 99.7131C45.822 99.5545 45.5479 99.3382 45.3925 99.0653C45.2376 98.788 45.1682 98.4398 45.1858 98.0195L46.4949 98.0725C46.4862 98.2828 46.5188 98.4494 46.5937 98.5737C46.6682 98.6944 46.8097 98.7892 47.0168 98.8581C47.2244 98.9275 47.5252 98.9697 47.9196 98.9856C48.4774 99.0083 48.8734 98.9569 49.1069 98.831C49.3407 98.7051 49.4631 98.5159 49.4734 98.2633C49.4826 98.0394 49.4029 97.8617 49.2348 97.7298C49.0627 97.598 48.8101 97.5255 48.4766 97.5123L47.5646 97.4753C46.9925 97.4522 46.5662 97.3279 46.2854 97.1024C46.0053 96.8733 45.8714 96.5936 45.8858 96.2629C45.8945 96.053 45.9662 95.853 46.1013 95.6629C46.236 95.4757 46.4164 95.3195 46.6435 95.1928C46.2854 94.9896 46.0252 94.749 45.8627 94.4721C45.7041 94.1912 45.6324 93.8605 45.6491 93.4796C45.667 93.053 45.7897 92.6816 46.0164 92.3673C46.2435 92.0557 46.5491 91.8207 46.9332 91.6613C47.3168 91.4992 47.7519 91.4271 48.2368 91.447C48.877 91.4872 49.3949 91.4621 49.7901 91.3717C50.1893 91.2773 50.622 91.1203 51.0885 90.9004V90.9ZM48.2232 92.4247C47.8937 92.4111 47.6324 92.504 47.4387 92.7028C47.2415 92.9016 47.136 93.1733 47.1216 93.5183C47.1069 93.8741 47.1909 94.1609 47.3738 94.3785C47.5531 94.596 47.8113 94.7115 48.1479 94.7251C48.4989 94.7394 48.7698 94.6466 48.9595 94.4478C49.1487 94.2526 49.2519 93.9661 49.2678 93.5896C49.2993 92.8426 48.9507 92.4545 48.2232 92.4247Z" fill="#111111"/>
<path d="M57.7745 93.949C57.782 94.0235 57.792 94.2175 57.8028 94.5315L54.0291 94.9147C54.1366 95.4837 54.3306 95.8773 54.6123 96.0956C54.898 96.3171 55.2514 96.4068 55.6733 96.3637C55.9398 96.3363 56.186 96.2669 56.4107 96.1542C56.6358 96.0454 56.8725 95.8888 57.1207 95.6849L57.8063 96.4366C57.1956 97.0359 56.4809 97.3765 55.6629 97.4598C54.7474 97.553 54.0115 97.3482 53.4561 96.8466C52.9012 96.345 52.5725 95.6179 52.4721 94.6649C52.4091 94.0633 52.4581 93.5108 52.6199 93.0072C52.7824 92.5076 53.051 92.1008 53.4263 91.7872C53.7976 91.4737 54.2593 91.2896 54.8107 91.2331C55.6542 91.1474 56.3342 91.343 56.8502 91.8207C57.3673 92.3012 57.6753 93.0108 57.7745 93.949ZM56.294 93.7454L56.2868 93.6817C56.1777 92.6478 55.7342 92.1705 54.9557 92.2494C54.5992 92.2857 54.333 92.441 54.1585 92.7167C53.9872 92.9952 53.9119 93.4179 53.931 93.9857L56.294 93.7454Z" fill="#111111"/>
<path d="M63.041 94.6522L63.7693 95.4195C63.5992 95.6155 63.3968 95.7828 63.1633 95.9211C62.9254 96.0565 62.6721 96.1573 62.4055 96.2235C61.8262 96.3553 61.3474 96.3004 60.9681 96.0597C60.5892 95.8191 60.3207 95.39 60.1629 94.7717L59.3872 91.7314L58.4697 91.9573L58.2151 90.9577L59.1326 90.7314L58.8075 89.4577L60.1832 88.943L60.5509 90.3828L61.9163 90.0462L62.0235 91.082L60.8055 91.382L61.5721 94.3864C61.6438 94.6693 61.747 94.8605 61.8812 94.9597C62.0115 95.0601 62.1836 95.0836 62.398 95.031C62.6123 94.9781 62.8266 94.8522 63.041 94.6522Z" fill="#111111"/>
<path d="M66.4101 88.259C66.9081 88.0733 67.3575 88.0785 67.7595 88.2753C68.1599 88.4686 68.4623 88.8275 68.6651 89.3534L70.2204 93.3713L68.8531 93.8817L67.3794 90.0737C67.2519 89.7443 67.1033 89.5351 66.9332 89.4462C66.7663 89.3562 66.5682 89.3538 66.338 89.4403C66.1113 89.5247 65.9288 89.6749 65.791 89.8897C65.6567 90.1036 65.5515 90.3773 65.4746 90.7108L66.9734 94.5841L65.6065 95.0944L62.6013 87.3279L63.9161 86.6825L65.0806 89.6925C65.3268 88.9761 65.7698 88.498 66.4101 88.259Z" fill="#111111"/>
<path d="M75.4504 86.8717C75.489 86.9358 75.5791 87.1092 75.7217 87.39L72.4488 89.2745C72.7862 89.749 73.1289 90.0279 73.4775 90.1123C73.8309 90.1972 74.1902 90.1346 74.5564 89.9239C74.7878 89.7908 74.9819 89.6271 75.1396 89.4339C75.2986 89.243 75.4484 89.0044 75.5878 88.7171L76.5289 89.1223C76.2257 89.9159 75.7189 90.5171 75.0089 90.9263C74.2149 91.3833 73.4595 91.4968 72.742 91.2657C72.0249 91.0354 71.4197 90.5068 70.9269 89.6809C70.6153 89.159 70.4269 88.6358 70.3619 88.1115C70.2994 87.5908 70.3727 87.1111 70.5815 86.6733C70.787 86.237 71.1297 85.8813 71.6081 85.606C72.3396 85.1848 73.0408 85.086 73.7121 85.31C74.385 85.5374 74.9643 86.0578 75.4504 86.8717ZM74.0169 87.2884L73.9834 87.2335C73.4484 86.337 72.8436 86.0829 72.1683 86.4713C71.8587 86.6498 71.6823 86.8996 71.6396 87.2215C71.6014 87.5446 71.7109 87.9605 71.9675 88.4685L74.0169 87.2884Z" fill="#111111"/>
<path d="M77.5029 81.5235C77.677 81.3896 77.8519 81.2888 78.0276 81.2207L78.7065 82.4689C78.5316 82.5446 78.3762 82.635 78.2396 82.7406C77.9567 82.9582 77.8141 83.2287 77.8101 83.553C77.8069 83.8717 77.9189 84.2721 78.146 84.753L80.1348 87.2454L78.9842 88.1311L75.2551 83.4582L76.2515 82.6908L77.0938 83.5207C76.9388 83.102 76.8974 82.7175 76.9691 82.3685C77.0428 82.0227 77.2205 81.7406 77.5029 81.5235Z" fill="#111111"/>
<path d="M81.0475 78.0331C81.4256 77.6542 81.8363 77.4717 82.2797 77.4849C82.7204 77.4956 83.1483 77.7008 83.5622 78.0992L86.6861 81.1096L85.6622 82.1347L82.7012 79.2821C82.4451 79.0351 82.2208 78.9064 82.0287 78.8956C81.8391 78.8825 81.6578 78.9621 81.4849 79.1347C81.31 79.31 81.2068 79.5227 81.1761 79.7725C81.1479 80.0195 81.1726 80.3123 81.2503 80.6514L84.2538 83.5454L83.2299 84.5705L78.9148 80.4131L79.8016 79.5247L80.4443 79.9868C80.3339 79.1972 80.5351 78.5458 81.0475 78.0331Z" fill="#111111"/>
<path d="M88.6662 73.055C88.7284 73.098 88.8845 73.2175 89.1339 73.4143L86.9642 76.4725C87.4726 76.7641 87.9032 76.8765 88.2554 76.8096C88.6128 76.7414 88.9128 76.5366 89.155 76.1952C89.3084 75.9793 89.4152 75.7506 89.4758 75.51C89.5391 75.2717 89.573 74.9928 89.5778 74.6749L90.6048 74.6558C90.6678 75.5016 90.4638 76.2558 89.9933 76.9187C89.467 77.6606 88.8295 78.0741 88.0793 78.1598C87.3299 78.2458 86.5546 78.0143 85.7554 77.4669C85.2503 77.1207 84.8566 76.7231 84.5742 76.2741C84.2949 75.8271 84.1566 75.3613 84.1602 74.8777C84.161 74.3968 84.32 73.9331 84.6375 73.4861C85.1224 72.8028 85.7172 72.4243 86.422 72.3522C87.1303 72.2813 87.8782 72.5159 88.6662 73.055ZM87.5419 74.0235L87.4885 73.9868C86.6208 73.3928 85.963 73.4108 85.5156 74.0418C85.3104 74.3311 85.257 74.6307 85.3546 74.9402C85.4578 75.2494 85.7343 75.5817 86.1841 75.9382L87.5419 74.0235Z" fill="#111111"/>
<path d="M87.691 68.3136C88.0519 67.5956 88.585 67.0697 89.2902 66.7371L89.8025 67.6112C89.2806 67.9255 88.9109 68.2996 88.6926 68.7343C88.5643 68.9893 88.5125 69.2128 88.5376 69.4036C88.5675 69.5928 88.6643 69.7267 88.826 69.8056C88.9495 69.8658 89.0671 69.8849 89.179 69.8642C89.2942 69.8442 89.4272 69.7717 89.579 69.647C89.7288 69.5251 89.926 69.3307 90.1691 69.0638C90.6185 68.5634 91.042 68.2367 91.4384 68.0837C91.8376 67.9323 92.2702 67.9689 92.7344 68.1948C93.2738 68.4562 93.5878 68.8769 93.6766 69.4558C93.7671 70.0319 93.6515 70.6387 93.3308 71.2769C93.1125 71.7112 92.8432 72.0745 92.5216 72.3677C92.2053 72.6586 91.8627 72.8777 91.4941 73.0239L91.0758 72.0231C91.6659 71.7335 92.0878 71.3371 92.3412 70.8327C92.4858 70.5454 92.5424 70.2873 92.5125 70.0578C92.481 69.8319 92.3627 69.6693 92.1579 69.5701C92.0021 69.4948 91.8619 69.4642 91.7368 69.4793C91.6137 69.4992 91.475 69.5745 91.32 69.7052C91.1667 69.8335 90.9495 70.0478 90.6694 70.349C90.2471 70.8187 89.8368 71.1163 89.4388 71.2406C89.0404 71.3649 88.64 71.3295 88.2372 71.1339C87.938 70.9889 87.7117 70.7717 87.5583 70.4829C87.4029 70.1972 87.336 69.8646 87.3567 69.4857C87.3774 69.1068 87.489 68.7159 87.691 68.3136Z" fill="#111111"/>
<path d="M89.8187 63.1338C90.0773 62.3745 90.5334 61.7829 91.1856 61.3589L91.8135 62.157C91.3394 62.5378 91.0247 62.9582 90.8681 63.4171C90.7761 63.6872 90.7557 63.9151 90.8071 64.1012C90.8629 64.2848 90.9769 64.4048 91.1486 64.4613C91.2789 64.504 91.3984 64.508 91.5063 64.4713C91.6179 64.4366 91.7398 64.347 91.8729 64.2036C92.0051 64.0629 92.1733 63.8442 92.3773 63.5474C92.7534 62.992 93.1279 62.6119 93.4996 62.4072C93.8745 62.204 94.3079 62.1833 94.7992 62.3446C95.3697 62.5319 95.7382 62.9068 95.9063 63.4689C96.0757 64.0271 96.0442 64.6438 95.8143 65.3195C95.6577 65.7789 95.4406 66.1749 95.1633 66.5076C94.89 66.8382 94.5808 67.1008 94.2354 67.2948L93.6836 66.3589C94.2286 65.994 94.5916 65.5442 94.7733 65.0111C94.8769 64.7072 94.8976 64.4442 94.8362 64.2207C94.7733 64.0008 94.6338 63.8558 94.4171 63.7844C94.2526 63.7303 94.1091 63.7183 93.988 63.7502C93.8685 63.786 93.7414 63.8793 93.6055 64.0299C93.4713 64.1773 93.286 64.4183 93.0498 64.7538C92.6964 65.2757 92.3306 65.6247 91.9533 65.8008C91.5757 65.9773 91.1745 65.9956 90.7482 65.855C90.4318 65.751 90.1781 65.5661 89.9856 65.3004C89.7924 65.0378 89.6796 64.7175 89.6486 64.339C89.6171 63.9605 89.6737 63.5589 89.8187 63.1338Z" fill="#111111"/>
<path d="M1.37305 50.1287C1.37305 48.2406 2.93095 46.7108 4.85213 46.7108C6.77388 46.7108 8.33125 48.241 8.33125 50.1287C8.33125 52.0163 6.77333 53.5462 4.85213 53.5462C2.9304 53.5462 1.37305 52.0159 1.37305 50.1287Z" fill="#111111"/>
<path d="M91.6687 50.1287C91.6687 48.2406 93.2265 46.7108 95.1484 46.7108C97.0699 46.7108 98.6273 48.241 98.6273 50.1287C98.6273 52.0163 97.0695 53.5462 95.1484 53.5462C93.2265 53.5462 91.6691 52.0159 91.6687 50.1287Z" fill="#111111"/>
</g>
</g>
<mask id="mask4_3_283" style="mask-type:luminance" maskUnits="userSpaceOnUse" x="26" y="26" width="48" height="48">
<path d="M73.5698 26.4297H26.4299V73.5704H73.5698V26.4297Z" fill="white"/>
</mask>
<g mask="url(#mask4_3_283)">
<mask id="mask5_3_283" style="mask-type:luminance" maskUnits="userSpaceOnUse" x="26" y="26" width="48" height="48">
<path d="M73.5698 26.4297H26.4299V73.5704H73.5698V26.4297Z" fill="white"/>
</mask>
<g mask="url(#mask5_3_283)">
<path d="M73.57 50C73.57 63.0175 63.0166 73.5701 49.9995 73.5701C36.9818 73.5701 26.4299 63.0175 26.4299 50C26.4299 36.9826 36.9823 26.4297 49.9995 26.4297C63.0166 26.4297 73.57 36.9826 73.57 50ZM49.8628 28.4143C37.8759 28.4143 28.1577 38.1315 28.1577 50.1187C28.1577 62.1064 37.8759 71.8239 49.8628 71.8239C61.8501 71.8239 71.568 62.1064 71.568 50.1187C71.568 38.1315 61.8501 28.4143 49.8628 28.4143Z" fill="#111111"/>
<path d="M70.0593 50.1785C70.0593 61.3 61.0438 70.3159 49.9227 70.3159C38.8006 70.3159 29.7852 61.3 29.7852 50.1785C29.7852 39.0566 38.8011 30.0411 49.9227 30.0411C61.0438 30.0411 70.0593 39.0571 70.0593 50.1785ZM36.1738 42.4609L31.8887 44.2864L34.1903 48.4924L30.8568 52.1434L34.8248 55.0793L33.3169 59.6032L38.0781 60.7135L38.6344 65.4761L43.4753 64.6024L45.7765 68.6506L49.8235 65.7928L53.7912 68.6506L56.1729 64.5227L60.9342 65.6338L61.4904 60.5538L66.3318 59.6829L64.8235 55.0004L68.7908 52.1434L65.6167 48.5717L67.8394 44.2068L63.3948 42.302L63.9502 37.4612L58.9502 37.3815L57.5219 32.6994L52.9988 34.6037L49.8247 31.1119L46.6506 34.6834L42.1271 32.6994L40.5398 37.3815L35.6987 37.2227L36.1738 42.4609Z" fill="#111111"/>
<path d="M62.7593 55.3171L63.7912 58.1741L60.7752 58.7299L55.7756 54.8414L55.1406 55.5554L59.5059 60.2371L59.3477 63.1749L56.4111 62.4598L53.4059 56.7602C53.074 56.9418 52.7274 57.1008 52.3676 57.2335L54.6649 63.412L53.0768 65.7928L50.935 64.1259L50.3131 57.6733C50.125 57.6885 49.9346 57.698 49.7445 57.698C49.5541 57.698 49.3657 57.6885 49.1788 57.6749L48.872 64.2052L46.4912 65.9514L44.9832 63.4916L47.1214 57.2343C46.7732 57.1056 46.4374 56.9546 46.1147 56.7797L43.2366 62.4586L40.3796 63.094L40.0621 60.396L44.4457 55.551C44.1673 55.2813 43.9087 54.9904 43.6736 54.6813L38.7135 58.649L35.8566 58.1733L36.6498 55.3956L42.6808 52.9355C42.5274 52.557 42.4047 52.1641 42.3135 51.7582L36.0941 53.3319L33.8721 51.6657L35.6175 49.6813H42.1354C42.1513 49.3745 42.1872 49.0713 42.2382 48.7749L42.2051 48.7295L35.7764 47.3008L34.5862 45.1582L37.2051 43.8881L42.9418 46.6478C43.0716 46.3912 43.2147 46.1426 43.372 45.9032L38.2369 42.1434L37.9989 39.366H40.8557L44.7441 44.0486C44.7441 44.0486 44.8473 44.0849 44.9892 44.1299C45.2242 43.9414 45.47 43.7669 45.7266 43.6068C45.6708 43.4148 45.6175 43.2542 45.6175 43.2542L42.4429 38.3337L43.1577 35.4767L45.7764 36.5085L47.8649 42.6944C48.1258 42.6287 48.3924 42.5765 48.6641 42.5387L47.9979 36.1122L49.8234 34.1282L51.6493 36.0325L50.9497 42.5566C51.2677 42.6072 51.5764 42.6773 51.88 42.7657L53.6334 36.6669L56.3314 35.3179L57.284 38.2545L53.9501 43.4128L54.8234 44.2064L58.8708 39.4447H61.7286L61.49 42.1434L56.3314 45.7143L56.4107 46.3498C56.4107 46.3498 56.4075 46.3606 56.4027 46.3781C56.4744 46.508 56.5441 46.6398 56.6107 46.7741C57.4712 46.3853 62.4418 43.9689 62.4418 43.9689L65.0605 45.2387C65.0605 45.2387 64.1083 47.5402 63.8704 47.5402C63.6609 47.5402 58.5111 48.5167 57.2449 48.7574C57.3071 49.11 57.3449 49.4709 57.3569 49.8383L63.9485 49.7626L65.774 51.8267L63.472 53.4924L57.1521 51.8542C57.0605 52.2359 56.9418 52.6076 56.7947 52.9638L62.7593 55.3171ZM49.9031 44.3653C49.3342 44.3653 48.8716 44.8275 48.8716 45.3972C48.8716 45.9669 49.3338 46.4295 49.9031 46.4295C50.4728 46.4295 50.935 45.9677 50.935 45.3972C50.935 44.8275 50.4724 44.3653 49.9031 44.3653ZM53.1565 45.7143C52.5872 45.7143 52.1254 46.1765 52.1254 46.7462C52.1254 47.3163 52.5868 47.7785 53.1565 47.7785C53.7266 47.7785 54.1888 47.3163 54.1888 46.7462C54.1888 46.1765 53.7266 45.7143 53.1565 45.7143ZM54.5852 49.0474C54.0159 49.0474 53.5541 49.51 53.5541 50.0793C53.5541 50.6486 54.0155 51.1104 54.5852 51.1104C55.1553 51.1104 55.6178 50.649 55.6178 50.0793C55.6178 49.51 55.1557 49.0474 54.5852 49.0474ZM53.2358 52.3809C52.6669 52.3809 52.2039 52.8426 52.2039 53.4124C52.2039 53.9829 52.6665 54.4434 53.2358 54.4434C53.8059 54.4434 54.268 53.9821 54.268 53.4124C54.268 52.8426 53.8059 52.3809 53.2358 52.3809ZM49.9031 53.8877C49.3342 53.8877 48.8716 54.3506 48.8716 54.9207C48.8716 55.4896 49.3338 55.9518 49.9031 55.9518C50.4728 55.9518 50.935 55.49 50.935 54.9207C50.935 54.351 50.4724 53.8877 49.9031 53.8877ZM46.6493 52.3809C46.0796 52.3809 45.6182 52.8426 45.6182 53.4124C45.6182 53.9829 46.0796 54.4434 46.6493 54.4434C47.2194 54.4434 47.6812 53.9829 47.6812 53.4124C47.6812 52.8426 47.2194 52.3809 46.6493 52.3809ZM45.1414 49.0474C44.5716 49.0474 44.1103 49.51 44.1103 50.0793C44.1103 50.6486 44.5716 51.1104 45.1414 51.1104C45.7115 51.1104 46.1732 50.649 46.1732 50.0793C46.1732 49.51 45.7115 49.0474 45.1414 49.0474ZM46.4115 45.7143C45.8414 45.7143 45.38 46.1765 45.38 46.7462C45.38 47.3163 45.8414 47.7785 46.4115 47.7785C46.9816 47.7785 47.4426 47.3163 47.4426 46.7462C47.4426 46.1765 46.9816 45.7143 46.4115 45.7143ZM49.8234 48.7307C49.078 48.7307 48.4752 49.3343 48.4752 50.0797C48.4752 50.8247 49.0784 51.4279 49.8234 51.4279C50.5688 51.4279 51.172 50.8243 51.172 50.0797C51.172 49.3343 50.5688 48.7307 49.8234 48.7307Z" fill="#111111"/>
</g>
</g>
<path d="M3.49103 35.2263C3.59358 34.8984 3.73104 34.6181 3.9045 34.3857C4.08125 34.1544 4.3065 33.9536 4.58037 33.784L5.14164 34.5515C4.96164 34.6813 4.81929 34.815 4.71455 34.9524C4.60874 35.0937 4.52634 35.2573 4.46798 35.4444C4.23344 36.1956 4.68563 36.7493 5.82515 37.1049C6.40336 37.2855 6.85065 37.3165 7.1665 37.1982C7.48125 37.0836 7.69451 36.8463 7.80634 36.4863C7.86144 36.3101 7.88328 36.1405 7.87236 35.9785C7.862 35.8126 7.82491 35.6097 7.76053 35.3692L8.69603 35.0692C8.93276 35.6616 8.9573 36.26 8.76913 36.8627C8.62021 37.3389 8.38511 37.7202 8.06328 38.0066C7.74144 38.293 7.35686 38.4713 6.90957 38.5406C6.45953 38.6056 5.97025 38.5554 5.44113 38.3901C4.912 38.2248 4.47399 37.9853 4.12706 37.6716C3.78068 37.3548 3.55158 36.9849 3.43975 36.5632C3.32793 36.141 3.34483 35.6954 3.49103 35.2263Z" fill="#111111"/>
<path d="M5.69754 29.6007C5.77335 29.4239 5.86391 29.2739 5.96973 29.1506L7.00997 29.8325C6.91017 29.9623 6.82997 30.097 6.76997 30.2367C6.64889 30.5187 6.65431 30.7866 6.7869 31.0402C6.92052 31.2906 7.17582 31.5529 7.5522 31.8273L10.1138 32.9276L9.61303 34.0938L4.80566 32.0286L5.23881 31.0206L6.23431 31.3151C5.93758 31.0511 5.74447 30.7708 5.65391 30.4751C5.56064 30.1778 5.57535 29.8865 5.69754 29.6007Z" fill="#111111"/>
<path d="M11.1241 25.245C11.1819 25.2777 11.3264 25.371 11.5582 25.5243L9.93214 28.3744C10.392 28.5899 10.7717 28.6554 11.0706 28.5708C11.3717 28.483 11.6139 28.279 11.7972 27.9577C11.9106 27.7586 11.9848 27.5502 12.0203 27.332C12.0568 27.1187 12.0628 26.8733 12.0383 26.5956L12.9247 26.4952C13.0447 27.2316 12.928 27.9097 12.575 28.5294C12.1795 29.2227 11.6635 29.6345 11.0275 29.7649C10.3898 29.8985 9.70305 29.7562 8.96827 29.3367C8.50624 29.0732 8.1364 28.7558 7.85875 28.3848C7.5811 28.0139 7.42401 27.6179 7.38803 27.1973C7.35309 26.7734 7.45513 26.3529 7.69293 25.9356C8.05568 25.3001 8.53736 24.9221 9.13791 24.801C9.74015 24.6848 10.4024 24.8332 11.1241 25.245ZM10.2387 26.1816L10.1858 26.1516C9.38995 25.6977 8.82317 25.766 8.48664 26.3562C8.33278 26.6256 8.31098 26.8918 8.42007 27.1542C8.53297 27.4187 8.79975 27.6899 9.21975 27.9681L10.2387 26.1816Z" fill="#111111"/>
<path d="M15.5463 21.5902C15.711 21.7152 15.8496 21.7806 15.9608 21.786C16.0754 21.7943 16.196 21.7604 16.3231 21.6852L16.8293 22.4025C16.6302 22.6223 16.4267 22.7717 16.2183 22.8509C16.0105 22.9294 15.7792 22.9354 15.5245 22.8672C15.6265 23.1672 15.6489 23.4618 15.591 23.752C15.5332 24.0422 15.4045 24.3198 15.2037 24.5849C14.8912 24.9973 14.523 25.2352 14.0991 25.299C13.6807 25.3617 13.2798 25.2482 12.8969 24.958C12.4463 24.6166 12.2254 24.1895 12.2341 23.6767C12.2434 23.1689 12.4791 22.6103 12.9405 22.001L13.3355 21.4795L13.1014 21.3022C12.8336 21.0993 12.5979 21.018 12.395 21.0595C12.1954 21.1026 11.9914 21.2613 11.7846 21.5351C11.555 21.8384 11.3504 22.2612 11.1715 22.8023L10.302 22.5192C10.4995 21.8482 10.7837 21.2684 11.1541 20.7796C11.9619 19.7138 12.8429 19.5419 13.7969 20.2647L15.5463 21.5902ZM14.6746 23.7596C14.9337 23.4182 14.9659 23.0205 14.7712 22.5678L13.9273 21.9284L13.6126 22.3435C13.1173 22.9976 13.1107 23.5071 13.594 23.8731C13.7942 24.0247 13.9867 24.0918 14.1717 24.0744C14.3593 24.0591 14.5268 23.9544 14.6746 23.7596Z" fill="#111111"/>
<path d="M18.8548 18.5328L19.745 18.775C19.7128 19.0003 19.6408 19.2185 19.5301 19.4296C19.4215 19.638 19.2851 19.8272 19.1209 19.9974C18.7565 20.3645 18.3785 20.5445 17.9863 20.5364C17.5969 20.5303 17.1997 20.3329 16.7955 19.9429L14.8078 18.0277L14.2389 18.6184L13.5843 17.9879L14.1532 17.3971L13.323 16.5969L14.0921 15.5834L15.0303 16.4872L15.8764 15.609L16.4426 16.3312L15.6849 17.1178L17.6525 19.0134C17.8363 19.1901 18 19.2866 18.144 19.3025C18.2852 19.3156 18.4227 19.2529 18.5558 19.1143C18.6889 18.9757 18.7887 18.7821 18.8548 18.5328Z" fill="#111111"/>
<path d="M17.2243 14.3326L18.1664 13.4822L21.6727 17.3654L20.7307 18.2159L17.2243 14.3326ZM15.9135 11.9466C16.0892 11.7879 16.2812 11.7142 16.4901 11.7246C16.7012 11.7382 16.8785 11.8244 17.022 11.9837C17.1681 12.1457 17.2358 12.3306 17.2254 12.5395C17.2123 12.7457 17.1179 12.9279 16.9423 13.0861C16.7694 13.2421 16.5801 13.3163 16.3739 13.3081C16.165 13.2972 15.9877 13.211 15.8415 13.0496C15.698 12.8903 15.6304 12.7054 15.6386 12.4937C15.6495 12.2848 15.7412 12.1026 15.9135 11.9466Z" fill="#111111"/>
<path d="M22.3752 10.3233L23.4307 9.56067L25.1206 14.7946L23.8938 15.681L19.428 12.4529L20.5424 11.6477L23.9124 14.4095L22.3752 10.3233Z" fill="#111111"/>
<path d="M24.7562 8.737L25.8434 8.08242L28.543 12.5647L27.4553 13.2192L24.7562 8.737ZM23.926 6.14433C24.1283 6.02214 24.3313 5.98668 24.5342 6.03684C24.7387 6.09031 24.8964 6.20868 25.0072 6.3925C25.1195 6.57907 25.1506 6.77382 25.1004 6.97728C25.0481 7.17692 24.9209 7.33784 24.718 7.46003C24.5184 7.58003 24.3182 7.61656 24.1175 7.56911C23.9145 7.51895 23.7569 7.40003 23.6445 7.21346C23.5338 7.02963 23.5027 6.83489 23.5513 6.62923C23.6014 6.42633 23.7264 6.26485 23.926 6.14433Z" fill="#111111"/>
<path d="M32.0188 9.66817L32.7689 10.2065C32.6598 10.4062 32.5163 10.5857 32.3385 10.7444C32.1639 10.902 31.9702 11.0319 31.7564 11.1339C31.2868 11.351 30.8695 11.387 30.5056 11.2419C30.1429 11.1 29.8402 10.776 29.5969 10.2698L28.4039 7.7808L27.6642 8.13534L27.2715 7.31602L28.0111 6.96148L27.5126 5.92179L28.5877 5.24048L29.1506 6.4149L30.2498 5.88797L30.528 6.76291L29.5434 7.23474L30.7244 9.69869C30.8346 9.92837 30.9546 10.0762 31.0838 10.1411C31.2115 10.2027 31.362 10.1918 31.5355 10.1089C31.709 10.026 31.8693 9.87873 32.0188 9.66817Z" fill="#111111"/>
<path d="M36.0489 3.73981L36.2022 9.26065C36.2186 9.93706 36.0855 10.5175 35.8024 11.0018C35.5182 11.483 35.0343 11.8762 34.3509 12.1817L33.9232 11.3569C34.2297 11.1933 34.4643 11.0318 34.6274 10.872C34.7905 10.7122 34.9045 10.5365 34.9694 10.3445C35.0349 10.1525 35.0742 9.91523 35.0873 9.63268L34.6749 9.77885L31.3638 5.40188L32.6277 4.95352L35.1664 8.71081L34.8162 4.1773L36.0489 3.73981Z" fill="#111111"/>
<path d="M38.9022 6.87742C39.1274 6.81854 39.3342 6.84252 39.5224 6.94997C39.7111 7.05742 39.8344 7.22165 39.8923 7.44308C39.9238 7.56475 39.9369 7.69511 39.9314 7.83368C39.9262 7.97276 39.9043 8.15225 39.8664 8.37205L39.6151 9.95069L38.87 10.146L38.8301 8.39715C38.577 8.30659 38.4139 8.12057 38.3403 7.83802C38.2841 7.62364 38.3103 7.424 38.4183 7.2391C38.5263 7.05416 38.6878 6.9336 38.9022 6.87742Z" fill="#111111"/>
<path d="M45.8797 1.77393C46.2215 1.73956 46.5331 1.75647 46.8152 1.82465C47.0972 1.89666 47.3697 2.02485 47.6339 2.21031L47.1478 3.02799C46.9582 2.91344 46.7789 2.83489 46.6116 2.79234C46.4403 2.75034 46.257 2.73889 46.0622 2.75852C45.2789 2.83762 44.9474 3.47038 45.0669 4.6579C45.1275 5.26065 45.2741 5.68452 45.5072 5.92834C45.7363 6.17272 46.0379 6.27579 46.4124 6.23818C46.5964 6.21961 46.7606 6.17324 46.9056 6.09962C47.0538 6.02543 47.2263 5.91141 47.4227 5.75758L48.0658 6.50053C47.6136 6.95113 47.0729 7.2075 46.4442 7.27133C45.9478 7.32149 45.5048 7.2544 45.1148 7.07057C44.7247 6.88675 44.4108 6.60308 44.1709 6.21906C43.9351 5.83069 43.7893 5.36049 43.7343 4.80902C43.6785 4.2575 43.7271 3.76058 43.8793 3.31819C44.0355 2.87526 44.2853 2.5196 44.6299 2.25122C44.9741 1.98285 45.3909 1.82357 45.8797 1.77393Z" fill="#111111"/>
<path d="M51.5296 1.64843C52.2985 1.66534 52.8929 1.92445 53.314 2.4252C53.7351 2.92268 53.9363 3.59963 53.9172 4.45659C53.9053 5.00317 53.7945 5.4848 53.5857 5.90157C53.3806 6.31448 53.0909 6.63141 52.716 6.85233C52.3415 7.07707 51.9013 7.18345 51.3957 7.17253C50.6236 7.15508 50.0248 6.89599 49.5997 6.39524C49.1786 5.89448 48.9774 5.21153 48.9969 4.34695C49.0093 3.80036 49.1176 3.32197 49.3228 2.91286C49.5316 2.50375 49.8252 2.18682 50.2033 1.96263C50.5778 1.74171 51.0196 1.63698 51.5296 1.64843ZM51.5081 2.60684C50.7507 2.58994 50.3587 3.18015 50.3324 4.37695C50.3188 4.99771 50.4005 5.45592 50.579 5.75157C50.7606 6.05102 51.0399 6.2054 51.4168 6.21356C51.7937 6.22177 52.0778 6.07886 52.269 5.78372C52.4634 5.49245 52.5682 5.04026 52.5822 4.42711C52.5957 3.814 52.5116 3.35907 52.3296 3.06287C52.1511 2.76667 51.8774 2.61503 51.5081 2.60684Z" fill="#111111"/>
<path d="M56.5199 7.58004C56.1239 7.52876 55.8275 7.37112 55.6311 7.10709C55.4338 6.84689 55.3629 6.50434 55.4179 6.07888L56.206 0L57.4825 0.0256377L56.6813 6.20378C56.6494 6.44542 56.7315 6.57908 56.9255 6.60418C57.0243 6.61725 57.1259 6.61343 57.2287 6.59327L57.3777 7.51239C57.1024 7.59586 56.8163 7.61821 56.5199 7.58004Z" fill="#111111"/>
<path d="M59.7322 8.191C59.3414 8.11025 59.0577 7.9308 58.8812 7.6526C58.7039 7.37821 58.6589 7.03128 58.7458 6.6118L59.9888 0.608765L61.2601 0.73041L59.9968 6.83108C59.947 7.07001 60.0183 7.20913 60.2099 7.24893C60.3075 7.26913 60.4083 7.27296 60.5131 7.26041L60.5928 8.18825C60.3119 8.251 60.025 8.25152 59.7322 8.191Z" fill="#111111"/>
<path d="M65.7737 8.4048C65.7111 8.60225 65.696 8.75393 65.7278 8.86138C65.7589 8.97209 65.831 9.07413 65.9446 9.16847L65.4378 9.8858C65.1641 9.77178 64.9549 9.62994 64.8111 9.4603C64.6669 9.29066 64.5848 9.07464 64.5633 8.81174C64.3151 9.00811 64.0446 9.12811 63.7518 9.17122C63.4589 9.21429 63.1545 9.1854 62.837 9.08448C62.3438 8.92791 61.9964 8.66118 61.7944 8.28317C61.5948 7.91006 61.5681 7.4944 61.7131 7.0362C61.884 6.49723 62.2123 6.14596 62.6988 5.98229C63.1804 5.82086 63.7856 5.85576 64.5143 6.08703L65.1378 6.28448L65.2266 6.00468C65.3282 5.68393 65.3259 5.4352 65.2191 5.25791C65.1115 5.08444 64.894 4.94532 64.5661 4.8417C64.2035 4.7266 63.737 4.67588 63.1669 4.68843L63.143 3.77419C63.841 3.736 64.4828 3.80964 65.0673 3.99456C66.3422 4.39875 66.7988 5.1717 66.437 6.31285L65.7737 8.4048ZM63.4374 8.3099C63.8462 8.4397 64.231 8.3366 64.5936 8.00169L64.9135 6.99253L64.4167 6.83488C63.635 6.58672 63.1522 6.75197 62.9689 7.32966C62.8932 7.56911 62.8944 7.77313 62.9729 7.94114C63.0502 8.11297 63.2051 8.23568 63.4374 8.3099Z" fill="#111111"/>
<path d="M71.6968 6.6751C72.2462 6.93092 72.5744 7.35096 72.682 7.93407C72.7892 8.51773 72.6593 9.20339 72.2924 9.99108C72.0633 10.4837 71.7836 10.883 71.4533 11.1895C71.1266 11.4977 70.7732 11.6919 70.3932 11.7721C70.0115 11.8555 69.6302 11.8081 69.2485 11.6303C68.9904 11.5102 68.7812 11.3472 68.6203 11.1421C68.4593 10.9364 68.3458 10.6986 68.2804 10.4275L67.9852 10.8769L66.9705 10.4045L70.0637 3.76221L71.2725 4.17239L70.0792 6.73455C70.333 6.59219 70.5995 6.51419 70.8784 6.50164C71.1561 6.49235 71.429 6.55016 71.6968 6.6751ZM69.3322 10.6238C69.6434 10.7689 69.949 10.7482 70.2478 10.5611C70.5454 10.3779 70.8266 10.0009 71.0916 9.43196C71.3693 8.83574 71.4856 8.37646 71.4402 8.05299C71.3916 7.72841 71.2215 7.49877 70.9298 7.36351C70.5649 7.19331 70.1517 7.26204 69.6908 7.56861L68.7131 9.66925C68.7338 9.8869 68.7968 10.0794 68.9027 10.2464C69.0119 10.4155 69.1549 10.5409 69.3322 10.6238Z" fill="#111111"/>
<path d="M77.115 9.81977C77.7584 10.2398 78.1274 10.7733 78.2206 11.4213C78.3162 12.0661 78.1302 12.7474 77.662 13.4658C77.3632 13.924 77.015 14.2748 76.6178 14.5186C76.2258 14.7613 75.8122 14.8775 75.3776 14.8677C74.9413 14.8606 74.5106 14.7193 74.0863 14.4422C73.4393 14.0205 73.068 13.4843 72.9716 12.8347C72.8776 12.1866 73.0676 11.501 73.5393 10.7765C73.8381 10.3183 74.1823 9.96977 74.5728 9.73029C74.9664 9.49248 75.3824 9.37846 75.8222 9.38718C76.2569 9.39702 76.6879 9.54157 77.115 9.81977ZM76.5907 10.6233C75.9565 10.2093 75.3122 10.5038 74.658 11.5064C74.3186 12.0263 74.1469 12.4588 74.1425 12.8047C74.1389 13.1554 74.2947 13.4336 74.6106 13.6393C74.9266 13.8449 75.2433 13.8733 75.5612 13.7232C75.8804 13.5787 76.2078 13.2492 76.5433 12.7359C76.8784 12.2221 77.0469 11.7917 77.0485 11.4442C77.0533 11.0989 76.9007 10.8251 76.5907 10.6233Z" fill="#111111"/>
<path d="M82.759 14.1139C82.9064 14.2372 83.0247 14.3664 83.1131 14.5028L82.1625 15.3052C82.0665 15.1721 81.9605 15.057 81.8442 14.9599C81.6088 14.7635 81.3506 14.6921 81.0693 14.7466C80.7912 14.8034 80.4665 14.973 80.096 15.2556L78.3104 17.396L77.3354 16.5833L80.6872 12.5658L81.5303 13.2689L80.9633 14.1384C81.3012 13.9295 81.6251 13.8242 81.9343 13.8226C82.2462 13.8182 82.5215 13.9153 82.759 14.1139Z" fill="#111111"/>
<path d="M84.112 21.1904C83.9625 21.3333 83.8757 21.4593 83.8522 21.5685C83.8263 21.6802 83.8402 21.8046 83.8944 21.9421L83.1056 22.3272C82.9199 22.0954 82.8056 21.8706 82.7602 21.6524C82.7155 21.4342 82.747 21.2051 82.855 20.9646C82.543 21.0175 82.2482 20.9924 81.9709 20.8893C81.694 20.7862 81.4402 20.6144 81.2104 20.3733C80.8534 19.9991 80.6777 19.5976 80.6825 19.1694C80.6872 18.7461 80.8637 18.3686 81.2104 18.037C81.6195 17.6469 82.0769 17.4969 82.5821 17.5869C83.0817 17.6769 83.5952 17.9988 84.1227 18.5524L84.5745 19.0254L84.7872 18.8225C85.0307 18.5901 85.1478 18.3708 85.1398 18.1646C85.1287 17.9606 85.0048 17.7342 84.7677 17.4855C84.5048 17.21 84.1207 16.9411 83.6143 16.6782L84.0335 15.8649C84.6641 16.1671 85.1908 16.5402 85.6143 16.9842C86.5378 17.9519 86.5661 18.8492 85.7 19.6751L84.112 21.1904ZM82.11 19.9827C82.4056 20.2931 82.7928 20.388 83.2713 20.2691L84.037 19.5381L83.6777 19.1612C83.1116 18.5677 82.6092 18.4799 82.1705 18.8983C81.9888 19.0718 81.892 19.2512 81.8797 19.4367C81.8649 19.6243 81.9414 19.8065 82.11 19.9827Z" fill="#111111"/>
<path d="M86.6016 24.945L86.2203 25.7851C86.0032 25.7168 85.7992 25.6116 85.6088 25.4681C85.4207 25.3279 85.2554 25.1627 85.1127 24.9734C84.8083 24.555 84.6916 24.1529 84.7625 23.7673C84.8311 23.3838 85.0896 23.0233 85.539 22.6867L87.747 21.0306L87.2546 20.3744L87.9821 19.8289L88.4741 20.4851L89.3964 19.7935L90.2741 20.7148L89.2323 21.4964L89.9637 22.4718L89.1605 22.9153L88.5052 22.0414L86.3191 23.6811C86.1151 23.8339 85.994 23.9806 85.9558 24.1202C85.9203 24.2577 85.9601 24.4033 86.0753 24.5566C86.1904 24.7104 86.3657 24.8397 86.6016 24.945Z" fill="#111111"/>
<path d="M91.0085 24.0056L91.6977 25.0715L87.3041 27.9129L86.6152 26.847L91.0085 24.0056ZM93.573 23.0931C93.7013 23.2916 93.7435 23.4929 93.7001 23.6974C93.6531 23.9036 93.5395 24.0651 93.3595 24.1813C93.1762 24.2997 92.9826 24.3368 92.7786 24.2931C92.5774 24.2473 92.4128 24.1251 92.2838 23.9265C92.1575 23.7313 92.1148 23.5321 92.1551 23.3298C92.1989 23.1252 92.3124 22.9638 92.4957 22.8459C92.6758 22.7298 92.8694 22.6921 93.077 22.7341C93.2818 22.7778 93.4471 22.8978 93.573 23.0931Z" fill="#111111"/>
<path d="M93.9326 28.9859C94.278 29.6727 94.3282 30.3196 94.0828 30.9262C93.8409 31.5317 93.3377 32.0264 92.5716 32.4121C92.0832 32.6576 91.6059 32.7857 91.1397 32.7966C90.6788 32.8092 90.2632 32.7017 89.8923 32.4748C89.5182 32.249 89.2174 31.9102 88.9907 31.458C88.6437 30.768 88.5919 30.1178 88.8354 29.5074C89.08 28.9003 89.5891 28.4028 90.3616 28.0144C90.8501 27.7689 91.323 27.6407 91.7808 27.6298C92.2401 27.6222 92.6573 27.7329 93.0334 27.9615C93.4035 28.189 93.7035 28.5299 93.9326 28.9859ZM93.076 29.4163C92.7354 28.7393 92.0306 28.6701 90.9608 29.2079C90.4063 29.4866 90.0401 29.7741 89.8624 30.0703C89.6828 30.3714 89.678 30.6905 89.8469 31.0271C90.0162 31.3637 90.2764 31.5475 90.6266 31.578C90.9752 31.6135 91.4234 31.4935 91.9716 31.2186C92.5198 30.9431 92.8816 30.6556 93.0585 30.3562C93.2361 30.0599 93.2421 29.7468 93.076 29.4163Z" fill="#111111"/>
<path d="M96.6967 35.7744C96.8517 36.2174 96.8405 36.6068 96.6641 36.9423C96.4852 37.2827 96.1589 37.5353 95.6844 37.7011L92.1103 38.9486L91.6935 37.7556L95.0848 36.5719C95.3744 36.471 95.5601 36.3472 95.6417 36.201C95.7254 36.0586 95.7318 35.8879 95.6629 35.6888C95.5911 35.4832 95.4641 35.3201 95.2808 35.2001C95.0931 35.0779 94.8501 34.9824 94.5529 34.9142L91.1202 36.1126L90.7019 34.9142L95.6417 33.1899L96.0035 34.2258L95.3923 34.5449C96.0537 34.768 96.4884 35.1782 96.6967 35.7744Z" fill="#111111"/>
</g>
</g>
</g>
<path d="M134.037 59.48C131.413 59.48 128.901 59.112 126.501 58.376C124.101 57.608 122.197 56.632 120.789 55.448L122.949 50.6C124.293 51.656 125.957 52.536 127.941 53.24C129.925 53.944 131.957 54.296 134.037 54.296C135.797 54.296 137.221 54.104 138.309 53.72C139.397 53.336 140.197 52.824 140.709 52.184C141.221 51.512 141.477 50.76 141.477 49.928C141.477 48.904 141.109 48.088 140.373 47.48C139.637 46.84 138.677 46.344 137.493 45.992C136.341 45.608 135.045 45.256 133.605 44.936C132.197 44.616 130.773 44.248 129.333 43.832C127.925 43.384 126.629 42.824 125.445 42.152C124.293 41.448 123.349 40.52 122.613 39.368C121.877 38.216 121.509 36.744 121.509 34.952C121.509 33.128 121.989 31.464 122.949 29.96C123.941 28.424 125.429 27.208 127.413 26.312C129.429 25.384 131.973 24.92 135.045 24.92C137.061 24.92 139.061 25.176 141.045 25.688C143.029 26.2 144.757 26.936 146.229 27.896L144.261 32.744C142.757 31.848 141.205 31.192 139.605 30.776C138.005 30.328 136.469 30.104 134.997 30.104C133.269 30.104 131.861 30.312 130.773 30.728C129.717 31.144 128.933 31.688 128.421 32.36C127.941 33.032 127.701 33.8 127.701 34.664C127.701 35.688 128.053 36.52 128.757 37.16C129.493 37.768 130.437 38.248 131.589 38.6C132.773 38.952 134.085 39.304 135.525 39.656C136.965 39.976 138.389 40.344 139.797 40.76C141.237 41.176 142.533 41.72 143.685 42.392C144.869 43.064 145.813 43.976 146.517 45.128C147.253 46.28 147.621 47.736 147.621 49.496C147.621 51.288 147.125 52.952 146.133 54.488C145.173 55.992 143.685 57.208 141.669 58.136C139.653 59.032 137.109 59.48 134.037 59.48ZM154.809 59V25.4H161.049V59H154.809ZM171.137 59V25.4H185.825C189.473 25.4 192.673 26.104 195.425 27.512C198.177 28.92 200.321 30.872 201.857 33.368C203.393 35.864 204.161 38.808 204.161 42.2C204.161 45.56 203.393 48.504 201.857 51.032C200.321 53.528 198.177 55.48 195.425 56.888C192.673 58.296 189.473 59 185.825 59H171.137ZM177.377 53.72H185.537C188.065 53.72 190.241 53.24 192.065 52.28C193.921 51.32 195.345 49.976 196.337 48.248C197.361 46.52 197.873 44.504 197.873 42.2C197.873 39.864 197.361 37.848 196.337 36.152C195.345 34.424 193.921 33.08 192.065 32.12C190.241 31.16 188.065 30.68 185.537 30.68H177.377V53.72ZM211.793 59V25.4H218.033V59H211.793ZM233.689 51.08L233.353 43.688L250.969 25.4H257.977L243.337 40.952L239.881 44.744L233.689 51.08ZM228.121 59V25.4H234.361V59H228.121ZM251.545 59L238.681 43.688L242.809 39.128L258.841 59H251.545ZM278.615 59.48C275.991 59.48 273.575 59.048 271.367 58.184C269.159 57.32 267.239 56.12 265.607 54.584C263.975 53.016 262.711 51.192 261.815 49.112C260.919 47 260.471 44.696 260.471 42.2C260.471 39.704 260.919 37.416 261.815 35.336C262.711 33.224 263.975 31.4 265.607 29.864C267.239 28.296 269.159 27.08 271.367 26.216C273.575 25.352 275.975 24.92 278.567 24.92C281.191 24.92 283.591 25.352 285.767 26.216C287.975 27.08 289.895 28.296 291.527 29.864C293.159 31.4 294.423 33.224 295.319 35.336C296.215 37.416 296.663 39.704 296.663 42.2C296.663 44.696 296.215 47 295.319 49.112C294.423 51.224 293.159 53.048 291.527 54.584C289.895 56.12 287.975 57.32 285.767 58.184C283.591 59.048 281.207 59.48 278.615 59.48ZM278.567 54.008C280.263 54.008 281.831 53.72 283.271 53.144C284.711 52.568 285.959 51.752 287.015 50.696C288.071 49.608 288.887 48.36 289.463 46.952C290.071 45.512 290.375 43.928 290.375 42.2C290.375 40.472 290.071 38.904 289.463 37.496C288.887 36.056 288.071 34.808 287.015 33.752C285.959 32.664 284.711 31.832 283.271 31.256C281.831 30.68 280.263 30.392 278.567 30.392C276.871 30.392 275.303 30.68 273.863 31.256C272.455 31.832 271.207 32.664 270.119 33.752C269.063 34.808 268.231 36.056 267.623 37.496C267.047 38.904 266.759 40.472 266.759 42.2C266.759 43.896 267.047 45.464 267.623 46.904C268.231 48.344 269.063 49.608 270.119 50.696C271.175 51.752 272.423 52.568 273.863 53.144C275.303 53.72 276.871 54.008 278.567 54.008ZM309.99 40.856H326.742V46.136H309.99V40.856ZM310.518 59H304.278V25.4H328.806V30.632H310.518V59ZM341.552 40.856H358.304V46.136H341.552V40.856ZM342.08 59H335.84V25.4H360.368V30.632H342.08V59ZM178.119 82V68.7H184.161C185.605 68.7 186.878 68.9787 187.98 69.536C189.082 70.0807 189.944 70.847 190.564 71.835C191.185 72.823 191.495 73.9947 191.495 75.35C191.495 76.6927 191.185 77.8643 190.564 78.865C189.944 79.853 189.082 80.6257 187.98 81.183C186.878 81.7277 185.605 82 184.161 82H178.119ZM181.197 79.473H184.009C184.896 79.473 185.662 79.3083 186.308 78.979C186.967 78.637 187.474 78.1557 187.828 77.535C188.196 76.9143 188.379 76.186 188.379 75.35C188.379 74.5013 188.196 73.773 187.828 73.165C187.474 72.5443 186.967 72.0693 186.308 71.74C185.662 71.398 184.896 71.227 184.009 71.227H181.197V79.473ZM201.817 82V68.7H204.895V82H201.817ZM222.473 82.228C221.422 82.228 220.453 82.0633 219.566 81.734C218.692 81.392 217.926 80.9107 217.267 80.29C216.621 79.6693 216.114 78.941 215.747 78.105C215.392 77.269 215.215 76.3507 215.215 75.35C215.215 74.3493 215.392 73.431 215.747 72.595C216.114 71.759 216.627 71.0307 217.286 70.41C217.945 69.7893 218.717 69.3143 219.604 68.985C220.491 68.643 221.466 68.472 222.53 68.472C223.708 68.472 224.766 68.6683 225.703 69.061C226.653 69.4537 227.451 70.0237 228.097 70.771L226.121 72.595C225.64 72.0883 225.114 71.7147 224.544 71.474C223.974 71.2207 223.353 71.094 222.682 71.094C222.036 71.094 221.447 71.1953 220.915 71.398C220.383 71.6007 219.921 71.892 219.528 72.272C219.148 72.652 218.85 73.1017 218.635 73.621C218.432 74.1403 218.331 74.7167 218.331 75.35C218.331 75.9707 218.432 76.5407 218.635 77.06C218.85 77.5793 219.148 78.0353 219.528 78.428C219.921 78.808 220.377 79.0993 220.896 79.302C221.428 79.5047 222.011 79.606 222.644 79.606C223.252 79.606 223.841 79.511 224.411 79.321C224.994 79.1183 225.557 78.7827 226.102 78.314L227.85 80.537C227.128 81.0817 226.286 81.4997 225.323 81.791C224.373 82.0823 223.423 82.228 222.473 82.228ZM225.038 80.138V75.141H227.85V80.537L225.038 80.138ZM238.709 82V68.7H241.787V82H238.709ZM255.699 82V71.208H251.443V68.7H263.033V71.208H258.777V82H255.699ZM270.273 82L276.201 68.7H279.241L285.188 82H281.958L277.094 70.258H278.31L273.427 82H270.273ZM273.237 79.15L274.054 76.813H280.894L281.73 79.15H273.237ZM294.568 82V68.7H297.646V79.492H304.315V82H294.568Z" fill="#111111"/>
<defs>
<clipPath id="clip0_3_283">
<rect width="100" height="100" fill="white"/>
</clipPath>
</defs>
</svg>
